{"glyphs":{"0":{"ha":1153,"x_min":0,"x_max":0,"o":"m 126 441 b 574 -12 126 147 331 -12 b 1027 443 817 -12 1027 145 b 578 907 1027 749 813 907 b 126 441 346 907 126 753 z m 190 442 b 576 851 190 701 364 851 b 962 442 789 851 962 701 b 576 43 962 190 790 43 b 190 442 362 43 190 190 z "},"1":{"ha":563,"x_min":0,"x_max":0,"o":"m 311 837 l 311 0 l 373 0 l 373 897 l 312 897 l 99 849 l 108 798 z "},"2":{"ha":947,"x_min":0,"x_max":0,"o":"m 120 114 l 120 0 l 853 0 l 853 54 l 182 54 l 182 108 b 427 376 182 244 206 306 l 595 430 b 831 678 783 490 831 563 b 531 908 831 831 717 908 b 172 835 378 908 256 869 l 192 781 b 530 851 293 819 402 851 b 767 678 678 851 767 794 b 578 485 767 595 741 538 l 404 430 b 120 114 180 357 120 287 z "},"3":{"ha":936,"x_min":0,"x_max":0,"o":"m 443 -11 b 833 249 660 -11 833 61 b 635 483 833 368 774 458 b 791 690 742 519 791 598 b 468 907 791 853 647 907 b 115 835 315 907 194 868 l 136 781 b 470 851 222 818 345 851 b 727 688 647 851 727 784 b 468 497 727 605 660 497 l 270 497 l 270 442 l 471 442 b 769 246 678 442 769 386 b 444 45 769 120 644 45 b 97 108 306 45 187 74 l 74 53 b 443 -11 150 22 278 -11 z "},"4":{"ha":939,"x_min":0,"x_max":0,"o":"m 668 193 l 668 0 l 729 0 l 729 193 l 902 193 l 902 247 l 729 247 l 729 896 l 638 896 l 66 261 l 66 193 z m 129 247 l 668 845 l 668 247 z "},"5":{"ha":956,"x_min":0,"x_max":0,"o":"m 473 -11 b 837 281 681 -11 837 71 b 514 566 837 484 700 566 b 240 514 383 566 292 535 l 258 843 l 771 843 l 771 896 l 205 896 l 183 483 l 222 451 b 508 510 297 479 382 510 b 773 278 681 510 773 435 b 474 45 773 104 639 45 b 154 106 344 45 240 71 l 133 49 b 473 -11 219 14 322 -11 z "},"6":{"ha":1022,"x_min":0,"x_max":0,"o":"m 537 -12 b 926 290 851 -12 926 169 b 582 587 926 510 739 587 b 190 395 394 587 259 498 b 188 443 189 412 188 428 b 576 851 188 670 312 851 b 838 798 685 851 758 831 l 861 851 b 576 907 799 878 711 907 b 126 440 286 907 126 714 b 537 -12 126 124 306 -12 z m 197 325 b 576 531 274 452 410 531 b 862 289 745 531 862 447 b 538 44 862 97 685 44 b 197 325 377 44 233 128 z "},"7":{"ha":781,"x_min":0,"x_max":0,"o":"m 179 26 l 233 -6 l 734 828 l 734 896 l 46 896 l 46 841 l 674 841 z "},"8":{"ha":1014,"x_min":0,"x_max":0,"o":"m 116 222 b 515 -11 116 47 301 -11 b 915 224 728 -11 915 52 b 671 460 915 353 816 431 b 870 669 773 490 870 542 b 515 908 870 818 710 908 b 161 669 322 908 161 818 b 360 456 161 542 251 492 b 116 222 215 428 116 353 z m 179 226 b 515 428 179 357 310 428 b 851 226 720 428 851 357 b 515 43 851 97 706 43 b 179 226 324 43 179 97 z m 224 668 b 515 853 224 781 346 853 b 806 668 685 853 806 781 b 515 482 806 543 660 482 b 224 668 371 482 224 543 z "},"9":{"ha":1038,"x_min":0,"x_max":0,"o":"m 469 -11 b 915 464 762 -11 915 175 b 499 907 915 772 732 907 b 112 597 317 907 112 815 b 444 324 112 394 283 324 b 852 492 649 324 778 405 b 853 466 853 484 853 476 b 468 45 853 217 727 45 b 180 103 343 45 258 68 l 156 48 b 469 -11 217 19 310 -11 z m 175 599 b 498 850 175 774 335 850 b 846 557 678 850 813 760 b 448 381 738 431 615 381 b 175 599 308 381 175 440 z "}," ":{"ha":394,"x_min":0,"x_max":0,"o":""},"A":{"ha":1108,"x_min":0,"x_max":0,"o":"m 53 19 l 108 -7 l 227 220 l 881 220 l 999 -7 l 1056 22 l 598 895 l 510 895 z m 256 276 l 553 849 l 852 276 z "},"À":{"ha":1108,"x_min":0,"x_max":0,"o":"m 53 19 l 108 -7 l 227 220 l 881 220 l 999 -7 l 1056 22 l 598 895 l 510 895 z m 256 276 l 553 849 l 852 276 z m 293 1140 l 563 1003 l 590 1048 l 324 1193 z "},"Á":{"ha":1108,"x_min":0,"x_max":0,"o":"m 53 19 l 108 -7 l 227 220 l 881 220 l 999 -7 l 1056 22 l 598 895 l 510 895 z m 256 276 l 553 849 l 852 276 z m 506 1049 l 533 1003 l 803 1139 l 774 1192 z "},"Â":{"ha":1108,"x_min":0,"x_max":0,"o":"m 53 19 l 108 -7 l 227 220 l 881 220 l 999 -7 l 1056 22 l 598 895 l 510 895 z m 256 276 l 553 849 l 852 276 z m 329 1037 l 369 1000 l 553 1172 l 736 1000 l 774 1038 l 586 1210 l 522 1210 z "},"Ã":{"ha":1108,"x_min":0,"x_max":0,"o":"m 53 19 l 108 -7 l 227 220 l 881 220 l 999 -7 l 1056 22 l 598 895 l 510 895 z m 256 276 l 553 849 l 852 276 z m 317 1046 l 362 1022 b 452 1084 383 1059 413 1084 b 549 1047 487 1084 517 1065 b 660 1011 581 1029 619 1011 b 794 1104 713 1011 760 1037 l 749 1128 b 660 1064 724 1083 697 1064 b 563 1099 624 1064 594 1082 b 452 1137 530 1117 494 1137 b 317 1046 399 1137 347 1110 z "},"Ä":{"ha":1108,"x_min":0,"x_max":0,"o":"m 53 19 l 108 -7 l 227 220 l 881 220 l 999 -7 l 1056 22 l 598 895 l 510 895 z m 256 276 l 553 849 l 852 276 z m 417 1024 l 485 1024 l 485 1119 l 417 1119 z m 620 1024 l 688 1024 l 688 1119 l 620 1119 z "},"Å":{"ha":1108,"x_min":0,"x_max":0,"o":"m 53 19 l 108 -7 l 227 220 l 881 220 l 999 -7 l 1056 22 l 598 895 l 510 895 z m 256 276 l 553 849 l 852 276 z m 416 1110 b 555 989 416 1041 467 989 b 694 1110 638 989 694 1041 b 555 1230 694 1178 638 1230 b 416 1110 473 1230 416 1178 z m 465 1110 b 556 1189 465 1151 498 1189 b 645 1110 613 1189 645 1151 b 556 1031 645 1067 612 1031 b 465 1110 498 1031 465 1067 z "},"Ā":{"ha":1108,"x_min":0,"x_max":0,"o":"m 53 19 l 108 -7 l 227 220 l 881 220 l 999 -7 l 1056 22 l 598 895 l 510 895 z m 256 276 l 553 849 l 852 276 z m 363 1029 l 742 1029 l 742 1082 l 363 1082 z "},"Ă":{"ha":1108,"x_min":0,"x_max":0,"o":"m 53 19 l 108 -7 l 227 220 l 881 220 l 999 -7 l 1056 22 l 598 895 l 510 895 z m 256 276 l 553 849 l 852 276 z m 357 1194 b 551 1003 363 1094 406 1003 b 744 1194 693 1003 737 1097 l 692 1200 b 551 1054 681 1087 630 1054 b 409 1200 473 1054 420 1087 z "},"Ą":{"ha":1108,"x_min":0,"x_max":0,"o":"m 971 -284 b 1078 -267 1024 -284 1063 -272 l 1066 -222 b 972 -236 1044 -229 1008 -236 b 869 -148 931 -236 869 -215 b 1057 19 869 -85 926 -31 l 598 895 l 510 895 l 53 19 l 108 -7 l 227 220 l 881 220 l 979 31 b 815 -153 871 -17 815 -74 b 971 -284 815 -234 876 -284 z m 255 274 l 553 849 l 853 274 z "},"Ǻ":{"ha":1108,"x_min":0,"x_max":0,"o":"m 53 19 l 108 -7 l 227 220 l 881 220 l 999 -7 l 1056 22 l 598 895 l 510 895 z m 256 276 l 553 849 l 852 276 z m 406 1241 l 433 1196 l 703 1331 l 674 1384 z m 415 1065 b 553 944 415 997 466 944 b 693 1065 637 944 693 997 b 553 1185 693 1134 636 1185 b 415 1065 472 1185 415 1134 z m 463 1065 b 554 1144 463 1107 497 1144 b 644 1065 611 1144 644 1107 b 554 986 644 1023 610 986 b 463 1065 497 986 463 1023 z "},"B":{"ha":1156,"x_min":0,"x_max":0,"o":"m 703 895 l 177 895 l 177 0 l 678 0 b 1038 241 890 0 1038 52 b 851 477 1038 382 950 458 b 996 674 944 505 996 578 b 703 895 996 827 894 895 z m 240 57 l 240 442 l 717 442 b 972 243 903 442 972 357 b 680 57 972 100 860 57 z m 240 497 l 240 839 l 701 839 b 930 670 859 839 930 787 b 699 497 930 590 874 497 z "},"C":{"ha":1104,"x_min":0,"x_max":0,"o":"m 122 435 b 612 -11 122 138 308 -11 b 985 74 768 -11 878 24 l 960 128 b 619 48 867 85 770 48 b 188 435 344 48 188 176 b 631 847 188 732 379 847 b 953 783 753 847 847 824 l 976 840 b 631 907 862 884 752 907 b 122 435 378 907 122 790 z "},"Ç":{"ha":1104,"x_min":0,"x_max":0,"o":"m 122 435 b 594 -11 122 143 301 -6 b 691 -147 670 -51 691 -100 b 585 -236 691 -217 625 -236 b 488 -222 547 -236 510 -228 l 476 -267 b 582 -283 490 -271 525 -283 b 745 -151 683 -283 745 -233 b 674 -9 745 -94 724 -48 b 985 74 799 -1 893 31 l 960 128 b 619 48 867 85 770 48 b 188 435 344 48 188 176 b 631 847 188 732 379 847 b 953 783 753 847 847 824 l 976 840 b 631 907 862 884 752 907 b 122 435 378 907 122 790 z "},"Ć":{"ha":1104,"x_min":0,"x_max":0,"o":"m 122 435 b 612 -11 122 138 308 -11 b 985 74 768 -11 878 24 l 960 128 b 619 48 867 85 770 48 b 188 435 344 48 188 176 b 631 847 188 732 379 847 b 953 783 753 847 847 824 l 976 840 b 631 907 862 884 752 907 b 122 435 378 907 122 790 z m 495 1048 l 522 1003 l 792 1138 l 763 1191 z "},"Ĉ":{"ha":1104,"x_min":0,"x_max":0,"o":"m 122 435 b 612 -11 122 138 308 -11 b 985 74 768 -11 878 24 l 960 128 b 619 48 867 85 770 48 b 188 435 344 48 188 176 b 631 847 188 732 379 847 b 953 783 753 847 847 824 l 976 840 b 631 907 862 884 752 907 b 122 435 378 907 122 790 z m 385 1036 l 425 999 l 609 1171 l 792 999 l 831 1037 l 642 1210 l 578 1210 z "},"Ċ":{"ha":1104,"x_min":0,"x_max":0,"o":"m 122 435 b 612 -11 122 138 308 -11 b 985 74 768 -11 878 24 l 960 128 b 619 48 867 85 770 48 b 188 435 344 48 188 176 b 631 847 188 732 379 847 b 953 783 753 847 847 824 l 976 840 b 631 907 862 884 752 907 b 122 435 378 907 122 790 z m 588 1024 l 655 1024 l 655 1119 l 588 1119 z "},"Č":{"ha":1104,"x_min":0,"x_max":0,"o":"m 122 435 b 612 -11 122 138 308 -11 b 985 74 768 -11 878 24 l 960 128 b 619 48 867 85 770 48 b 188 435 344 48 188 176 b 631 847 188 732 379 847 b 953 783 753 847 847 824 l 976 840 b 631 907 862 884 752 907 b 122 435 378 907 122 790 z m 394 1189 l 583 1016 l 647 1016 l 839 1190 l 802 1226 l 617 1054 l 435 1226 z "},"D":{"ha":1178,"x_min":0,"x_max":0,"o":"m 552 895 l 177 895 l 177 0 l 549 0 b 1056 440 889 0 1056 143 b 552 895 1056 739 904 895 z m 240 57 l 240 838 l 553 838 b 990 440 872 838 990 694 b 556 57 990 208 875 57 z "},"Ď":{"ha":1178,"x_min":0,"x_max":0,"o":"m 552 895 l 177 895 l 177 0 l 549 0 b 1056 440 889 0 1056 143 b 552 895 1056 739 904 895 z m 240 57 l 240 838 l 553 838 b 990 440 872 838 990 694 b 556 57 990 208 875 57 z m 342 1189 l 531 1016 l 595 1016 l 787 1190 l 750 1226 l 565 1054 l 383 1226 z "},"E":{"ha":1044,"x_min":0,"x_max":0,"o":"m 177 895 l 177 0 l 951 0 l 951 58 l 240 58 l 240 423 l 827 423 l 827 480 l 240 480 l 240 838 l 938 838 l 938 895 z "},"È":{"ha":1044,"x_min":0,"x_max":0,"o":"m 177 895 l 177 0 l 951 0 l 951 58 l 240 58 l 240 423 l 827 423 l 827 480 l 240 480 l 240 838 l 938 838 l 938 895 z m 373 1141 l 642 1003 l 670 1049 l 403 1194 z "},"É":{"ha":1044,"x_min":0,"x_max":0,"o":"m 177 895 l 177 0 l 951 0 l 951 58 l 240 58 l 240 423 l 827 423 l 827 480 l 240 480 l 240 838 l 938 838 l 938 895 z m 465 1049 l 492 1004 l 762 1140 l 733 1192 z "},"Ê":{"ha":1044,"x_min":0,"x_max":0,"o":"m 177 895 l 177 0 l 951 0 l 951 58 l 240 58 l 240 423 l 827 423 l 827 480 l 240 480 l 240 838 l 938 838 l 938 895 z m 334 1037 l 374 1000 l 558 1172 l 741 1000 l 779 1038 l 591 1210 l 527 1210 z "},"Ë":{"ha":1044,"x_min":0,"x_max":0,"o":"m 177 895 l 177 0 l 951 0 l 951 58 l 240 58 l 240 423 l 827 423 l 827 480 l 240 480 l 240 838 l 938 838 l 938 895 z m 434 1024 l 501 1024 l 501 1119 l 434 1119 z m 637 1024 l 704 1024 l 704 1119 l 637 1119 z "},"Ē":{"ha":1044,"x_min":0,"x_max":0,"o":"m 177 895 l 177 0 l 951 0 l 951 58 l 240 58 l 240 423 l 827 423 l 827 480 l 240 480 l 240 838 l 938 838 l 938 895 z m 380 1029 l 758 1029 l 758 1082 l 380 1082 z "},"Ĕ":{"ha":1044,"x_min":0,"x_max":0,"o":"m 177 895 l 177 0 l 951 0 l 951 58 l 240 58 l 240 423 l 827 423 l 827 480 l 240 480 l 240 838 l 938 838 l 938 895 z m 379 1194 b 573 1003 385 1094 428 1003 b 766 1194 715 1003 759 1097 l 715 1200 b 573 1054 703 1087 652 1054 b 431 1200 495 1054 442 1087 z "},"Ė":{"ha":1044,"x_min":0,"x_max":0,"o":"m 177 895 l 177 0 l 951 0 l 951 58 l 240 58 l 240 423 l 827 423 l 827 480 l 240 480 l 240 838 l 938 838 l 938 895 z m 540 1024 l 607 1024 l 607 1119 l 540 1119 z "},"Ę":{"ha":1044,"x_min":0,"x_max":0,"o":"m 864 -284 b 968 -267 915 -284 954 -272 l 956 -222 b 865 -236 935 -229 898 -236 b 777 -153 817 -236 777 -208 b 951 0 777 -98 830 -48 l 951 58 l 240 58 l 240 423 l 827 423 l 827 480 l 240 480 l 240 838 l 938 838 l 938 895 l 177 895 l 177 0 l 855 0 b 723 -159 763 -42 723 -92 b 864 -284 723 -235 775 -284 z "},"Ě":{"ha":1044,"x_min":0,"x_max":0,"o":"m 177 895 l 177 0 l 951 0 l 951 58 l 240 58 l 240 423 l 827 423 l 827 480 l 240 480 l 240 838 l 938 838 l 938 895 z m 349 1189 l 538 1016 l 603 1016 l 794 1190 l 758 1226 l 573 1054 l 390 1226 z "},"F":{"ha":974,"x_min":0,"x_max":0,"o":"m 177 895 l 177 0 l 240 0 l 240 395 l 792 395 l 792 451 l 240 451 l 240 838 l 919 838 l 919 895 z "},"G":{"ha":1183,"x_min":0,"x_max":0,"o":"m 122 446 b 619 -11 122 115 337 -11 b 1022 71 792 -11 935 37 l 1022 434 l 603 434 l 603 376 l 959 376 l 959 115 b 626 48 883 85 770 48 b 188 444 361 48 188 166 b 636 848 188 713 384 848 b 965 785 752 848 844 828 l 987 844 b 636 907 874 883 773 907 b 122 446 367 907 122 762 z "},"Ĝ":{"ha":1183,"x_min":0,"x_max":0,"o":"m 122 446 b 619 -11 122 115 337 -11 b 1022 71 792 -11 935 37 l 1022 434 l 603 434 l 603 376 l 959 376 l 959 115 b 626 48 883 85 770 48 b 188 444 361 48 188 166 b 636 848 188 713 384 848 b 965 785 752 848 844 828 l 987 844 b 636 907 874 883 773 907 b 122 446 367 907 122 762 z m 388 1037 l 427 1000 l 611 1172 l 794 1000 l 833 1038 l 644 1210 l 581 1210 z "},"Ğ":{"ha":1183,"x_min":0,"x_max":0,"o":"m 122 446 b 619 -11 122 115 337 -11 b 1022 71 792 -11 935 37 l 1022 434 l 603 434 l 603 376 l 959 376 l 959 115 b 626 48 883 85 770 48 b 188 444 361 48 188 166 b 636 848 188 713 384 848 b 965 785 752 848 844 828 l 987 844 b 636 907 874 883 773 907 b 122 446 367 907 122 762 z m 418 1194 b 612 1003 424 1094 467 1003 b 805 1194 754 1003 798 1097 l 753 1200 b 612 1054 742 1087 691 1054 b 470 1200 534 1054 481 1087 z "},"Ġ":{"ha":1183,"x_min":0,"x_max":0,"o":"m 122 446 b 619 -11 122 115 337 -11 b 1022 71 792 -11 935 37 l 1022 434 l 603 434 l 603 376 l 959 376 l 959 115 b 626 48 883 85 770 48 b 188 444 361 48 188 166 b 636 848 188 713 384 848 b 965 785 752 848 844 828 l 987 844 b 636 907 874 883 773 907 b 122 446 367 907 122 762 z m 582 1024 l 649 1024 l 649 1119 l 582 1119 z "},"Ģ":{"ha":1183,"x_min":0,"x_max":0,"o":"m 122 446 b 619 -11 122 115 337 -11 b 1022 71 792 -11 935 37 l 1022 434 l 603 434 l 603 376 l 959 376 l 959 115 b 626 48 883 85 770 48 b 188 444 361 48 188 166 b 636 848 188 713 384 848 b 965 785 752 848 844 828 l 987 844 b 636 907 874 883 773 907 b 122 446 367 907 122 762 z m 567 -354 l 603 -369 l 669 -226 l 669 -94 l 617 -94 l 617 -222 z "},"H":{"ha":1269,"x_min":0,"x_max":0,"o":"m 177 895 l 177 0 l 240 0 l 240 408 l 1028 408 l 1028 0 l 1092 0 l 1092 895 l 1028 895 l 1028 466 l 240 466 l 240 895 z "},"Ĥ":{"ha":1269,"x_min":0,"x_max":0,"o":"m 177 895 l 177 0 l 240 0 l 240 408 l 1028 408 l 1028 0 l 1092 0 l 1092 895 l 1028 895 l 1028 466 l 240 466 l 240 895 z m 424 1037 l 464 1000 l 648 1172 l 831 1000 l 869 1038 l 681 1210 l 617 1210 z "},"I":{"ha":418,"x_min":0,"x_max":0,"o":"m 177 895 l 177 0 l 240 0 l 240 895 z "},"Ì":{"ha":418,"x_min":0,"x_max":0,"o":"m 177 895 l 177 0 l 240 0 l 240 895 z m -53 1140 l 217 1003 l 244 1048 l -22 1193 z "},"Í":{"ha":418,"x_min":0,"x_max":0,"o":"m 177 895 l 177 0 l 240 0 l 240 895 z m 171 1048 l 198 1003 l 467 1138 l 438 1191 z "},"Î":{"ha":418,"x_min":0,"x_max":0,"o":"m 177 895 l 177 0 l 240 0 l 240 895 z m -16 1036 l 24 999 l 208 1171 l 391 999 l 429 1037 l 241 1210 l 177 1210 z "},"Ï":{"ha":418,"x_min":0,"x_max":0,"o":"m 177 895 l 177 0 l 240 0 l 240 895 z m 73 1024 l 140 1024 l 140 1119 l 73 1119 z m 276 1024 l 343 1024 l 343 1119 l 276 1119 z "},"Ĩ":{"ha":418,"x_min":0,"x_max":0,"o":"m 177 895 l 177 0 l 240 0 l 240 895 z m -28 1046 l 17 1022 b 107 1084 38 1059 68 1084 b 204 1047 142 1084 172 1065 b 315 1011 235 1029 274 1011 b 449 1104 367 1011 415 1037 l 403 1128 b 315 1064 379 1083 352 1064 b 217 1099 278 1064 249 1082 b 107 1137 185 1117 149 1137 b -28 1046 54 1137 1 1110 z "},"Ī":{"ha":418,"x_min":0,"x_max":0,"o":"m 177 895 l 177 0 l 240 0 l 240 895 z m 17 1029 l 396 1029 l 396 1082 l 17 1082 z "},"Ĭ":{"ha":418,"x_min":0,"x_max":0,"o":"m 177 895 l 177 0 l 240 0 l 240 895 z m 15 1194 b 208 1003 21 1094 64 1003 b 401 1194 351 1003 394 1097 l 350 1200 b 208 1054 338 1087 288 1054 b 67 1200 131 1054 78 1087 z "},"Į":{"ha":418,"x_min":0,"x_max":0,"o":"m 194 -284 b 305 -267 249 -284 290 -272 l 293 -222 b 194 -236 270 -229 231 -236 b 103 -148 148 -236 103 -207 b 240 0 103 -93 148 -47 l 240 895 l 177 895 l 177 17 b 49 -153 99 -28 49 -81 b 194 -284 49 -235 103 -284 z "},"İ":{"ha":418,"x_min":0,"x_max":0,"o":"m 177 895 l 177 0 l 240 0 l 240 895 z m 174 1024 l 241 1024 l 241 1119 l 174 1119 z "},"J":{"ha":863,"x_min":0,"x_max":0,"o":"m 85 118 l 56 62 b 356 -11 110 28 210 -11 b 707 316 538 -11 707 56 l 707 896 l 644 896 l 644 318 b 357 48 644 112 508 48 b 85 118 219 48 140 88 z "},"Ĵ":{"ha":863,"x_min":0,"x_max":0,"o":"m 85 118 l 56 62 b 356 -11 110 28 210 -11 b 707 316 538 -11 707 56 l 707 896 l 644 896 l 644 318 b 357 48 644 112 508 48 b 85 118 219 48 140 88 z m 448 1037 l 488 1000 l 672 1172 l 855 1000 l 893 1038 l 705 1210 l 641 1210 z "},"K":{"ha":1174,"x_min":0,"x_max":0,"o":"m 663 500 l 1069 -10 l 1117 28 l 711 540 l 1089 863 l 1050 906 l 240 217 l 240 895 l 177 895 l 177 0 l 240 0 l 240 141 z "},"Ķ":{"ha":1174,"x_min":0,"x_max":0,"o":"m 663 500 l 1069 -10 l 1117 28 l 711 540 l 1089 863 l 1050 906 l 240 217 l 240 895 l 177 895 l 177 0 l 240 0 l 240 141 z m 564 -353 l 600 -367 l 665 -225 l 665 -92 l 614 -92 l 614 -220 z "},"L":{"ha":932,"x_min":0,"x_max":0,"o":"m 177 895 l 177 0 l 915 0 l 915 58 l 240 58 l 240 895 z "},"Ĺ":{"ha":932,"x_min":0,"x_max":0,"o":"m 177 895 l 177 0 l 915 0 l 915 58 l 240 58 l 240 895 z m 174 1049 l 201 1004 l 471 1140 l 442 1192 z "},"Ļ":{"ha":932,"x_min":0,"x_max":0,"o":"m 177 895 l 177 0 l 915 0 l 915 58 l 240 58 l 240 895 z m 480 -355 l 516 -369 l 581 -227 l 581 -94 l 530 -94 l 530 -222 z "},"Ľ":{"ha":932,"x_min":0,"x_max":0,"o":"m 177 895 l 177 0 l 915 0 l 915 58 l 240 58 l 240 895 z m 601 654 l 654 647 l 704 890 l 642 899 z "},"M":{"ha":1455,"x_min":0,"x_max":0,"o":"m 177 895 l 177 0 l 240 0 l 240 828 l 693 71 l 770 71 l 1215 826 l 1215 0 l 1278 0 l 1278 895 l 1188 895 l 733 123 l 273 895 z "},"N":{"ha":1228,"x_min":0,"x_max":0,"o":"m 177 895 l 177 0 l 240 0 l 240 825 l 965 0 l 1051 0 l 1051 895 l 988 895 l 988 67 l 263 895 z "},"Ñ":{"ha":1228,"x_min":0,"x_max":0,"o":"m 177 895 l 177 0 l 240 0 l 240 825 l 965 0 l 1051 0 l 1051 895 l 988 895 l 988 67 l 263 895 z m 392 1046 l 436 1022 b 526 1084 458 1059 488 1084 b 624 1047 561 1084 592 1065 b 735 1011 655 1029 693 1011 b 868 1104 787 1011 835 1037 l 823 1128 b 735 1064 799 1083 772 1064 b 637 1099 698 1064 669 1082 b 526 1137 604 1117 569 1137 b 392 1046 474 1137 421 1110 z "},"Ń":{"ha":1228,"x_min":0,"x_max":0,"o":"m 177 895 l 177 0 l 240 0 l 240 825 l 965 0 l 1051 0 l 1051 895 l 988 895 l 988 67 l 263 895 z m 559 1049 l 586 1004 l 856 1140 l 826 1192 z "},"Ņ":{"ha":1228,"x_min":0,"x_max":0,"o":"m 177 895 l 177 0 l 240 0 l 240 825 l 965 0 l 1051 0 l 1051 895 l 988 895 l 988 67 l 263 895 z m 560 -354 l 597 -369 l 662 -226 l 662 -94 l 610 -94 l 610 -222 z "},"Ň":{"ha":1228,"x_min":0,"x_max":0,"o":"m 177 895 l 177 0 l 240 0 l 240 825 l 965 0 l 1051 0 l 1051 895 l 988 895 l 988 67 l 263 895 z m 419 1189 l 608 1016 l 673 1016 l 865 1190 l 828 1226 l 643 1054 l 460 1226 z "},"O":{"ha":1285,"x_min":0,"x_max":0,"o":"m 122 446 b 640 -11 122 120 369 -11 b 1163 448 910 -11 1163 124 b 644 908 1163 771 909 908 b 122 446 384 908 122 774 z m 189 447 b 642 848 189 725 398 848 b 1096 447 886 848 1096 725 b 639 49 1096 169 888 49 b 189 447 393 49 189 169 z "},"Ò":{"ha":1285,"x_min":0,"x_max":0,"o":"m 122 446 b 640 -11 122 120 369 -11 b 1163 448 910 -11 1163 124 b 644 908 1163 771 909 908 b 122 446 384 908 122 774 z m 189 447 b 642 848 189 725 398 848 b 1096 447 886 848 1096 725 b 639 49 1096 169 888 49 b 189 447 393 49 189 169 z m 467 1141 l 737 1003 l 765 1049 l 498 1194 z "},"Ó":{"ha":1285,"x_min":0,"x_max":0,"o":"m 122 446 b 640 -11 122 120 369 -11 b 1163 448 910 -11 1163 124 b 644 908 1163 771 909 908 b 122 446 384 908 122 774 z m 189 447 b 642 848 189 725 398 848 b 1096 447 886 848 1096 725 b 639 49 1096 169 888 49 b 189 447 393 49 189 169 z m 557 1048 l 584 1003 l 853 1138 l 824 1191 z "},"Ô":{"ha":1285,"x_min":0,"x_max":0,"o":"m 122 446 b 640 -11 122 120 369 -11 b 1163 448 910 -11 1163 124 b 644 908 1163 771 909 908 b 122 446 384 908 122 774 z m 189 447 b 642 848 189 725 398 848 b 1096 447 886 848 1096 725 b 639 49 1096 169 888 49 b 189 447 393 49 189 169 z m 417 1036 l 456 999 l 640 1171 l 824 999 l 862 1037 l 674 1210 l 610 1210 z "},"Õ":{"ha":1285,"x_min":0,"x_max":0,"o":"m 122 446 b 640 -11 122 120 369 -11 b 1163 448 910 -11 1163 124 b 644 908 1163 771 909 908 b 122 446 384 908 122 774 z m 189 447 b 642 848 189 725 398 848 b 1096 447 886 848 1096 725 b 639 49 1096 169 888 49 b 189 447 393 49 189 169 z m 406 1046 l 450 1022 b 540 1084 472 1059 501 1084 b 638 1047 575 1084 606 1065 b 749 1011 669 1029 707 1011 b 882 1104 801 1011 849 1037 l 837 1128 b 749 1064 813 1083 785 1064 b 651 1099 712 1064 683 1082 b 540 1137 618 1117 583 1137 b 406 1046 488 1137 435 1110 z "},"Ö":{"ha":1285,"x_min":0,"x_max":0,"o":"m 122 446 b 640 -11 122 120 369 -11 b 1163 448 910 -11 1163 124 b 644 908 1163 771 909 908 b 122 446 384 908 122 774 z m 189 447 b 642 848 189 725 398 848 b 1096 447 886 848 1096 725 b 639 49 1096 169 888 49 b 189 447 393 49 189 169 z m 507 1024 l 574 1024 l 574 1119 l 507 1119 z m 710 1024 l 777 1024 l 777 1119 l 710 1119 z "},"Ō":{"ha":1285,"x_min":0,"x_max":0,"o":"m 122 446 b 640 -11 122 120 369 -11 b 1163 448 910 -11 1163 124 b 644 908 1163 771 909 908 b 122 446 384 908 122 774 z m 189 447 b 642 848 189 725 398 848 b 1096 447 886 848 1096 725 b 639 49 1096 169 888 49 b 189 447 393 49 189 169 z m 453 1029 l 832 1029 l 832 1082 l 453 1082 z "},"Ŏ":{"ha":1285,"x_min":0,"x_max":0,"o":"m 122 446 b 640 -11 122 120 369 -11 b 1163 448 910 -11 1163 124 b 644 908 1163 771 909 908 b 122 446 384 908 122 774 z m 189 447 b 642 848 189 725 398 848 b 1096 447 886 848 1096 725 b 639 49 1096 169 888 49 b 189 447 393 49 189 169 z m 449 1194 b 642 1003 455 1094 498 1003 b 835 1194 785 1003 828 1097 l 784 1200 b 642 1054 772 1087 722 1054 b 501 1200 565 1054 512 1087 z "},"Ő":{"ha":1285,"x_min":0,"x_max":0,"o":"m 122 446 b 640 -11 122 120 369 -11 b 1163 448 910 -11 1163 124 b 644 908 1163 771 909 908 b 122 446 384 908 122 774 z m 189 447 b 642 848 189 725 398 848 b 1096 447 886 848 1096 725 b 639 49 1096 169 888 49 b 189 447 393 49 189 169 z m 447 1037 l 487 1001 l 697 1210 l 653 1252 z m 708 1042 l 746 1005 l 963 1204 l 922 1249 z "},"P":{"ha":1113,"x_min":0,"x_max":0,"o":"m 695 895 l 177 895 l 177 0 l 240 0 l 240 267 l 696 267 b 1042 574 908 267 1042 366 b 695 895 1042 776 929 895 z m 240 325 l 240 838 l 699 838 b 976 574 886 838 976 739 b 699 325 976 426 892 325 z "},"Q":{"ha":1285,"x_min":0,"x_max":0,"o":"m 676 303 l 802 69 b 639 49 751 56 697 49 b 189 447 393 49 189 169 b 642 848 189 725 398 848 b 1096 447 886 848 1096 725 b 859 87 1096 258 999 142 l 727 331 z m 122 446 b 640 -11 122 120 369 -11 b 832 14 706 -11 772 -3 l 938 -181 l 988 -152 l 888 33 b 1163 448 1047 96 1163 228 b 644 908 1163 771 909 908 b 122 446 384 908 122 774 z "},"R":{"ha":1161,"x_min":0,"x_max":0,"o":"m 801 322 l 967 -10 l 1025 17 l 861 340 b 1038 599 973 379 1038 467 b 694 895 1038 774 935 895 l 177 895 l 177 0 l 240 0 l 240 313 l 697 313 b 801 322 735 313 769 315 z m 240 369 l 240 838 l 687 838 b 971 601 891 838 971 743 b 689 369 971 463 890 369 z "},"Ŕ":{"ha":1161,"x_min":0,"x_max":0,"o":"m 801 322 l 967 -10 l 1025 17 l 861 340 b 1038 599 973 379 1038 467 b 694 895 1038 774 935 895 l 177 895 l 177 0 l 240 0 l 240 313 l 697 313 b 801 322 735 313 769 315 z m 240 369 l 240 838 l 687 838 b 971 601 891 838 971 743 b 689 369 971 463 890 369 z m 469 1049 l 496 1004 l 765 1140 l 736 1192 z "},"Ŗ":{"ha":1161,"x_min":0,"x_max":0,"o":"m 801 322 l 967 -10 l 1025 17 l 861 340 b 1038 599 973 379 1038 467 b 694 895 1038 774 935 895 l 177 895 l 177 0 l 240 0 l 240 313 l 697 313 b 801 322 735 313 769 315 z m 240 369 l 240 838 l 687 838 b 971 601 891 838 971 743 b 689 369 971 463 890 369 z m 519 -355 l 555 -369 l 620 -227 l 620 -94 l 569 -94 l 569 -222 z "},"Ř":{"ha":1161,"x_min":0,"x_max":0,"o":"m 801 322 l 967 -10 l 1025 17 l 861 340 b 1038 599 973 379 1038 467 b 694 895 1038 774 935 895 l 177 895 l 177 0 l 240 0 l 240 313 l 697 313 b 801 322 735 313 769 315 z m 240 369 l 240 838 l 687 838 b 971 601 891 838 971 743 b 689 369 971 463 890 369 z m 356 1189 l 545 1016 l 610 1016 l 801 1190 l 765 1226 l 580 1054 l 397 1226 z "},"S":{"ha":1075,"x_min":0,"x_max":0,"o":"m 147 121 l 122 62 b 528 -11 212 22 349 -11 b 963 260 797 -11 963 60 b 589 497 963 461 775 485 b 212 662 401 508 212 507 b 555 848 212 785 322 848 b 882 795 694 848 811 817 l 902 853 b 552 907 831 877 704 907 b 147 663 303 907 147 824 b 565 434 147 451 363 445 b 899 258 738 424 899 411 b 531 48 899 98 745 48 b 147 121 369 48 251 77 z "},"Ś":{"ha":1075,"x_min":0,"x_max":0,"o":"m 147 121 l 122 62 b 528 -11 212 22 349 -11 b 963 260 797 -11 963 60 b 589 497 963 461 775 485 b 212 662 401 508 212 507 b 555 848 212 785 322 848 b 882 795 694 848 811 817 l 902 853 b 552 907 831 877 704 907 b 147 663 303 907 147 824 b 565 434 147 451 363 445 b 899 258 738 424 899 411 b 531 48 899 98 745 48 b 147 121 369 48 251 77 z m 461 1049 l 488 1004 l 758 1140 l 728 1192 z "},"Ŝ":{"ha":1075,"x_min":0,"x_max":0,"o":"m 147 121 l 122 62 b 528 -11 212 22 349 -11 b 963 260 797 -11 963 60 b 589 497 963 461 775 485 b 212 662 401 508 212 507 b 555 848 212 785 322 848 b 882 795 694 848 811 817 l 902 853 b 552 907 831 877 704 907 b 147 663 303 907 147 824 b 565 434 147 451 363 445 b 899 258 738 424 899 411 b 531 48 899 98 745 48 b 147 121 369 48 251 77 z m 322 1036 l 361 999 l 545 1171 l 728 999 l 767 1037 l 578 1210 l 515 1210 z "},"Ş":{"ha":1075,"x_min":0,"x_max":0,"o":"m 147 121 l 122 62 b 524 -11 211 22 347 -10 b 619 -146 599 -51 619 -100 b 513 -235 619 -217 553 -235 b 416 -221 476 -235 438 -228 l 404 -266 b 510 -283 418 -270 453 -283 b 674 -151 611 -283 674 -233 b 603 -9 674 -94 652 -47 b 963 260 828 3 963 79 b 589 497 963 461 775 485 b 212 662 401 508 212 507 b 555 848 212 785 322 848 b 882 795 694 848 811 817 l 902 853 b 552 907 831 877 704 907 b 147 663 303 907 147 824 b 565 434 147 451 363 445 b 899 258 738 424 899 411 b 531 48 899 98 745 48 b 147 121 369 48 251 77 z "},"Š":{"ha":1075,"x_min":0,"x_max":0,"o":"m 147 121 l 122 62 b 528 -11 212 22 349 -11 b 963 260 797 -11 963 60 b 589 497 963 461 775 485 b 212 662 401 508 212 507 b 555 848 212 785 322 848 b 882 795 694 848 811 817 l 902 853 b 552 907 831 877 704 907 b 147 663 303 907 147 824 b 565 434 147 451 363 445 b 899 258 738 424 899 411 b 531 48 899 98 745 48 b 147 121 369 48 251 77 z m 339 1189 l 528 1016 l 592 1016 l 784 1190 l 747 1226 l 563 1054 l 380 1226 z "},"Ș":{"ha":1075,"x_min":0,"x_max":0,"o":"m 489 -355 l 525 -369 l 590 -227 l 590 -94 l 539 -94 l 539 -222 z m 122 62 b 528 -11 212 22 349 -11 b 963 260 797 -11 963 60 b 589 497 963 461 775 485 b 212 662 401 508 212 507 b 555 848 212 785 322 848 b 882 795 694 848 811 817 l 902 853 b 552 907 831 877 704 907 b 147 663 303 907 147 824 b 565 434 147 451 363 445 b 899 258 738 424 899 411 b 531 48 899 98 745 48 b 147 121 369 48 251 77 z "},"T":{"ha":992,"x_min":0,"x_max":0,"o":"m 452 838 l 452 0 l 516 0 l 516 838 l 962 838 l 962 895 l 30 895 l 30 838 z "},"Ţ":{"ha":992,"x_min":0,"x_max":0,"o":"m 417 -354 l 453 -369 l 518 -226 l 518 -94 l 467 -94 l 467 -222 z m 30 838 l 452 838 l 452 0 l 516 0 l 516 838 l 962 838 l 962 895 l 30 895 z "},"Ť":{"ha":992,"x_min":0,"x_max":0,"o":"m 260 1190 l 449 1017 l 514 1017 l 706 1191 l 669 1228 l 484 1056 l 301 1228 z m 30 838 l 452 838 l 452 0 l 516 0 l 516 838 l 962 838 l 962 895 l 30 895 z "},"U":{"ha":1183,"x_min":0,"x_max":0,"o":"m 156 402 b 591 -11 156 61 376 -11 b 1027 402 805 -11 1027 65 l 1027 896 l 964 895 l 964 406 b 592 49 964 121 789 49 b 219 406 394 49 219 121 l 219 895 l 156 896 z "},"Ù":{"ha":1183,"x_min":0,"x_max":0,"o":"m 156 402 b 591 -11 156 61 376 -11 b 1027 402 805 -11 1027 65 l 1027 896 l 964 895 l 964 406 b 592 49 964 121 789 49 b 219 406 394 49 219 121 l 219 895 l 156 896 z m 369 1140 l 638 1003 l 666 1048 l 399 1193 z "},"Ú":{"ha":1183,"x_min":0,"x_max":0,"o":"m 504 1049 l 531 1003 l 801 1139 l 772 1192 z m 156 402 b 591 -11 156 61 376 -11 b 1027 402 805 -11 1027 65 l 1027 896 l 964 895 l 964 406 b 592 49 964 121 789 49 b 219 406 394 49 219 121 l 219 895 l 156 896 z "},"Û":{"ha":1183,"x_min":0,"x_max":0,"o":"m 377 1037 l 417 1000 l 601 1172 l 784 1000 l 822 1038 l 634 1210 l 570 1210 z m 156 402 b 591 -11 156 61 376 -11 b 1027 402 805 -11 1027 65 l 1027 896 l 964 895 l 964 406 b 592 49 964 121 789 49 b 219 406 394 49 219 121 l 219 895 l 156 896 z "},"Ü":{"ha":1183,"x_min":0,"x_max":0,"o":"m 461 1119 l 461 1024 l 528 1024 l 528 1119 z m 156 402 b 591 -11 156 61 376 -11 b 1027 402 805 -11 1027 65 l 1027 896 l 964 895 l 964 406 b 592 49 964 121 789 49 b 219 406 394 49 219 121 l 219 895 l 156 896 z m 664 1024 l 731 1024 l 731 1119 l 664 1119 z "},"Ũ":{"ha":1183,"x_min":0,"x_max":0,"o":"m 156 402 b 591 -11 156 61 376 -11 b 1027 402 805 -11 1027 65 l 1027 896 l 964 895 l 964 406 b 592 49 964 121 789 49 b 219 406 394 49 219 121 l 219 895 l 156 896 z m 366 1046 l 410 1022 b 501 1084 432 1059 462 1084 b 598 1047 535 1084 566 1065 b 709 1011 629 1029 667 1011 b 842 1104 761 1011 809 1037 l 797 1128 b 709 1064 773 1083 746 1064 b 611 1099 672 1064 643 1082 b 501 1137 578 1117 543 1137 b 366 1046 448 1137 395 1110 z "},"Ū":{"ha":1183,"x_min":0,"x_max":0,"o":"m 156 402 b 591 -11 156 61 376 -11 b 1027 402 805 -11 1027 65 l 1027 896 l 964 895 l 964 406 b 592 49 964 121 789 49 b 219 406 394 49 219 121 l 219 895 l 156 896 z m 406 1029 l 784 1029 l 784 1082 l 406 1082 z "},"Ŭ":{"ha":1183,"x_min":0,"x_max":0,"o":"m 156 402 b 591 -11 156 61 376 -11 b 1027 402 805 -11 1027 65 l 1027 896 l 964 895 l 964 406 b 592 49 964 121 789 49 b 219 406 394 49 219 121 l 219 895 l 156 896 z m 405 1194 b 599 1003 411 1094 454 1003 b 792 1194 741 1003 785 1097 l 740 1200 b 599 1054 728 1087 678 1054 b 457 1200 521 1054 468 1087 z "},"Ů":{"ha":1183,"x_min":0,"x_max":0,"o":"m 460 1111 b 599 990 460 1042 511 990 b 738 1111 682 990 738 1042 b 599 1231 738 1180 681 1231 b 460 1111 517 1231 460 1180 z m 156 402 b 591 -11 156 61 376 -11 b 1027 402 805 -11 1027 65 l 1027 896 l 964 895 l 964 406 b 592 49 964 121 789 49 b 219 406 394 49 219 121 l 219 895 l 156 896 z m 508 1111 b 599 1190 508 1153 542 1190 b 689 1111 656 1190 689 1153 b 599 1032 689 1069 656 1032 b 508 1111 542 1032 508 1069 z "},"Ű":{"ha":1183,"x_min":0,"x_max":0,"o":"m 156 402 b 591 -11 156 61 376 -11 b 1027 402 805 -11 1027 65 l 1027 896 l 964 895 l 964 406 b 592 49 964 121 789 49 b 219 406 394 49 219 121 l 219 895 l 156 896 z m 418 1037 l 458 1001 l 667 1210 l 624 1252 z m 679 1042 l 717 1005 l 934 1204 l 893 1249 z "},"Ų":{"ha":1190,"x_min":0,"x_max":0,"o":"m 513 -153 b 665 -283 513 -234 569 -283 b 776 -267 719 -283 760 -271 l 764 -222 b 665 -235 741 -228 701 -235 b 567 -147 614 -235 567 -206 b 681 -6 567 -96 603 -51 b 1027 402 863 16 1027 113 l 1027 896 l 964 895 l 964 406 b 592 49 964 121 789 49 b 219 406 394 49 219 121 l 219 895 l 156 896 l 156 402 b 591 -11 156 61 376 -11 l 592 -11 b 513 -153 542 -51 513 -96 z "},"V":{"ha":1086,"x_min":0,"x_max":0,"o":"m 43 874 l 503 -1 l 588 0 l 1043 878 l 985 906 l 547 51 l 102 906 z "},"W":{"ha":1524,"x_min":0,"x_max":0,"o":"m 73 884 l 397 0 l 483 0 l 763 840 l 1045 0 l 1133 0 l 1452 887 l 1395 906 l 1090 51 l 808 895 l 718 895 l 440 57 l 131 906 z "},"Ŵ":{"ha":1524,"x_min":0,"x_max":0,"o":"m 540 1036 l 579 999 l 763 1171 l 947 999 l 985 1037 l 797 1210 l 733 1210 z m 73 884 l 397 0 l 483 0 l 763 840 l 1045 0 l 1133 0 l 1452 887 l 1395 906 l 1090 51 l 808 895 l 718 895 l 440 57 l 131 906 z "},"Ẁ":{"ha":1524,"x_min":0,"x_max":0,"o":"m 73 884 l 397 0 l 483 0 l 763 840 l 1045 0 l 1133 0 l 1452 887 l 1395 906 l 1090 51 l 808 895 l 718 895 l 440 57 l 131 906 z m 517 1142 l 787 1004 l 815 1049 l 548 1194 z "},"Ẃ":{"ha":1524,"x_min":0,"x_max":0,"o":"m 712 1048 l 739 1003 l 1008 1138 l 979 1191 z m 73 884 l 397 0 l 483 0 l 763 840 l 1045 0 l 1133 0 l 1452 887 l 1395 906 l 1090 51 l 808 895 l 718 895 l 440 57 l 131 906 z "},"Ẅ":{"ha":1524,"x_min":0,"x_max":0,"o":"m 628 1119 l 628 1024 l 695 1024 l 695 1119 z m 73 884 l 397 0 l 483 0 l 763 840 l 1045 0 l 1133 0 l 1452 887 l 1395 906 l 1090 51 l 808 895 l 718 895 l 440 57 l 131 906 z m 831 1024 l 898 1024 l 898 1119 l 831 1119 z "},"X":{"ha":1090,"x_min":0,"x_max":0,"o":"m 69 33 l 110 -10 l 549 424 l 995 -11 l 1038 33 l 594 466 l 996 863 l 955 905 l 551 507 l 144 905 l 101 860 l 506 465 z "},"Y":{"ha":1079,"x_min":0,"x_max":0,"o":"m 516 242 l 516 0 l 579 0 l 579 243 l 1043 870 l 996 906 l 549 301 l 85 906 l 38 867 z "},"Ý":{"ha":1079,"x_min":0,"x_max":0,"o":"m 516 242 l 516 0 l 579 0 l 579 243 l 1043 870 l 996 906 l 549 301 l 85 906 l 38 867 z m 464 1049 l 491 1004 l 760 1140 l 731 1192 z "},"Ŷ":{"ha":1079,"x_min":0,"x_max":0,"o":"m 516 242 l 516 0 l 579 0 l 579 243 l 1043 870 l 996 906 l 549 301 l 85 906 l 38 867 z m 327 1037 l 367 1000 l 551 1172 l 734 1000 l 772 1038 l 584 1210 l 520 1210 z "},"Ÿ":{"ha":1079,"x_min":0,"x_max":0,"o":"m 516 242 l 516 0 l 579 0 l 579 243 l 1043 870 l 996 906 l 549 301 l 85 906 l 38 867 z m 416 1024 l 483 1024 l 483 1119 l 416 1119 z m 619 1024 l 686 1024 l 686 1119 l 619 1119 z "},"Z":{"ha":1024,"x_min":0,"x_max":0,"o":"m 78 71 l 78 0 l 962 0 l 962 58 l 146 58 l 932 822 l 932 895 l 121 895 l 121 838 l 866 838 z "},"Ź":{"ha":1024,"x_min":0,"x_max":0,"o":"m 447 1049 l 474 1003 l 744 1139 l 715 1192 z m 78 0 l 962 0 l 962 58 l 146 58 l 932 822 l 932 895 l 121 895 l 121 838 l 866 838 l 78 71 z "},"Ż":{"ha":1024,"x_min":0,"x_max":0,"o":"m 78 71 l 78 0 l 962 0 l 962 58 l 146 58 l 932 822 l 932 895 l 121 895 l 121 838 l 866 838 z m 496 1024 l 563 1024 l 563 1119 l 496 1119 z "},"Ž":{"ha":1024,"x_min":0,"x_max":0,"o":"m 315 1190 l 503 1017 l 568 1017 l 760 1190 l 723 1227 l 538 1055 l 356 1227 z m 78 0 l 962 0 l 962 58 l 146 58 l 932 822 l 932 895 l 121 895 l 121 838 l 866 838 l 78 71 z "},"Æ":{"ha":1605,"x_min":0,"x_max":0,"o":"m 58 28 l 105 -9 l 279 219 l 743 219 l 743 0 l 1520 0 l 1520 58 l 806 58 l 806 424 l 1395 424 l 1395 480 l 806 480 l 806 838 l 1507 838 l 1507 895 l 724 895 z m 324 276 l 743 822 l 743 276 z "},"Ǽ":{"ha":1605,"x_min":0,"x_max":0,"o":"m 726 1049 l 753 1003 l 1023 1139 l 994 1192 z m 58 28 l 105 -9 l 279 219 l 743 219 l 743 0 l 1520 0 l 1520 58 l 806 58 l 806 424 l 1395 424 l 1395 480 l 806 480 l 806 838 l 1507 838 l 1507 895 l 724 895 z m 324 276 l 743 822 l 743 276 z "},"Ð":{"ha":1194,"x_min":0,"x_max":0,"o":"m 45 456 l 45 403 l 194 403 l 194 0 l 566 0 b 1073 440 906 0 1073 143 b 569 895 1073 739 922 895 l 194 895 l 194 456 z m 258 57 l 258 403 l 533 403 l 533 456 l 258 456 l 258 838 l 570 838 b 1007 440 890 838 1007 694 b 573 57 1007 208 892 57 z "},"Ø":{"ha":1285,"x_min":0,"x_max":0,"o":"m 115 31 l 153 -11 l 278 96 b 640 -11 374 22 504 -11 b 1163 448 910 -11 1163 124 b 1049 758 1163 582 1119 685 l 1173 865 l 1135 908 l 1006 797 b 644 908 909 873 778 908 b 122 446 384 908 122 774 b 235 135 122 310 165 207 z m 189 447 b 642 848 189 725 398 848 b 957 755 763 848 874 818 l 285 177 b 189 447 225 241 189 330 z m 328 139 l 999 716 b 1096 447 1060 651 1096 563 b 639 49 1096 169 888 49 b 328 139 519 49 409 78 z "},"Ǿ":{"ha":1285,"x_min":0,"x_max":0,"o":"m 156 -11 l 280 95 b 640 -11 376 22 505 -11 b 1163 448 910 -11 1163 124 b 1050 757 1163 581 1119 683 l 1176 865 l 1137 908 l 1007 796 b 644 908 910 873 778 908 b 122 446 384 908 122 774 b 236 133 122 309 165 206 l 117 31 z m 189 447 b 642 848 189 725 398 848 b 958 753 763 848 875 818 l 286 176 b 189 447 226 240 189 329 z m 330 138 l 1001 715 b 1096 447 1060 650 1096 562 b 639 49 1096 169 888 49 b 330 138 520 49 410 77 z m 543 1049 l 570 1004 l 840 1140 l 810 1192 z "},"Þ":{"ha":1116,"x_min":0,"x_max":0,"o":"m 177 0 l 240 0 l 240 147 l 669 147 b 1015 447 899 147 1015 256 b 669 756 1015 636 908 756 l 240 756 l 240 895 l 177 895 z m 240 204 l 240 699 l 668 699 b 949 448 846 699 949 618 b 668 204 949 292 860 204 z "},"Đ":{"ha":1194,"x_min":0,"x_max":0,"o":"m 45 456 l 45 403 l 194 403 l 194 0 l 566 0 b 1073 440 906 0 1073 143 b 569 895 1073 739 922 895 l 194 895 l 194 456 z m 258 57 l 258 403 l 533 403 l 533 456 l 258 456 l 258 838 l 570 838 b 1007 440 890 838 1007 694 b 573 57 1007 208 892 57 z "},"Ħ":{"ha":1269,"x_min":0,"x_max":0,"o":"m 90 720 l 90 667 l 177 667 l 177 0 l 240 0 l 240 408 l 1028 408 l 1028 0 l 1092 0 l 1092 667 l 1185 667 l 1185 720 l 1092 720 l 1092 895 l 1028 895 l 1028 720 l 240 720 l 240 895 l 177 895 l 177 720 z m 240 466 l 240 667 l 1028 667 l 1028 466 z "},"Ĳ":{"ha":1281,"x_min":0,"x_max":0,"o":"m 177 895 l 177 0 l 240 0 l 240 895 z m 474 62 b 774 -11 528 28 628 -11 b 1125 316 956 -11 1125 56 l 1125 896 l 1062 896 l 1062 318 b 775 48 1062 112 926 48 b 503 118 638 48 558 88 z "},"Ŀ":{"ha":932,"x_min":0,"x_max":0,"o":"m 177 895 l 177 0 l 915 0 l 915 58 l 240 58 l 240 895 z m 631 411 l 701 411 l 701 542 l 631 542 z "},"Ł":{"ha":932,"x_min":0,"x_max":0,"o":"m 43 381 l 66 333 l 177 384 l 177 0 l 915 0 l 915 58 l 240 58 l 240 413 l 500 532 l 477 580 l 240 472 l 240 895 l 177 895 l 177 442 z "},"Ŋ":{"ha":1228,"x_min":0,"x_max":0,"o":"m 770 -227 l 772 -285 l 782 -285 b 1051 -14 963 -285 1051 -179 l 1051 895 l 988 895 l 988 95 l 263 895 l 177 895 l 177 0 l 240 0 l 240 825 l 990 0 b 770 -227 990 -208 858 -227 z "},"Œ":{"ha":1603,"x_min":0,"x_max":0,"o":"m 122 438 b 633 0 122 135 297 0 l 1510 0 l 1510 57 l 845 57 l 845 424 l 1385 424 l 1385 481 l 845 481 l 845 838 l 1497 838 l 1497 895 l 628 895 b 122 438 267 895 122 732 z m 188 440 b 624 838 188 677 292 838 l 782 838 l 782 58 l 622 58 b 188 440 307 58 188 206 z "},"Ŧ":{"ha":992,"x_min":0,"x_max":0,"o":"m 249 463 l 249 410 l 452 410 l 452 0 l 516 0 l 516 410 l 725 410 l 725 463 l 516 463 l 516 838 l 962 838 l 962 895 l 30 895 l 30 838 l 452 838 l 452 463 z "},"Ω":{"ha":1252,"x_min":0,"x_max":0,"o":"m 111 0 l 467 0 l 467 67 b 217 451 318 128 217 277 b 626 850 217 713 406 850 b 1035 453 844 850 1035 714 b 784 67 1035 286 942 131 l 784 0 l 1141 0 l 1141 57 l 873 57 b 1102 457 1007 128 1102 278 b 626 907 1102 747 877 907 b 150 457 374 907 150 747 b 378 57 150 276 243 127 l 111 57 z "},"a":{"ha":908,"x_min":0,"x_max":0,"o":"m 102 184 b 367 -12 102 24 240 -12 b 715 101 521 -12 648 52 l 726 0 l 775 0 l 775 436 b 478 690 775 602 679 690 b 174 630 338 690 240 657 l 192 576 b 478 635 246 599 349 635 b 715 434 630 635 715 578 l 715 410 b 566 415 662 413 612 415 b 102 184 236 415 102 335 z m 165 187 b 584 363 165 308 297 363 b 715 360 625 363 668 363 l 715 161 b 376 42 638 101 507 42 b 165 187 231 42 165 93 z "},"à":{"ha":908,"x_min":0,"x_max":0,"o":"m 102 184 b 367 -12 102 24 240 -12 b 715 101 521 -12 648 52 l 726 0 l 775 0 l 775 436 b 478 690 775 602 679 690 b 174 630 338 690 240 657 l 192 576 b 478 635 246 599 349 635 b 715 434 630 635 715 578 l 715 410 b 566 415 662 413 612 415 b 102 184 236 415 102 335 z m 165 187 b 584 363 165 308 297 363 b 715 360 625 363 668 363 l 715 161 b 376 42 638 101 507 42 b 165 187 231 42 165 93 z m 315 953 l 532 765 l 566 799 l 361 999 z "},"á":{"ha":908,"x_min":0,"x_max":0,"o":"m 102 184 b 367 -12 102 24 240 -12 b 715 101 521 -12 648 52 l 726 0 l 775 0 l 775 436 b 478 690 775 602 679 690 b 174 630 338 690 240 657 l 192 576 b 478 635 246 599 349 635 b 715 434 630 635 715 578 l 715 410 b 566 415 662 413 612 415 b 102 184 236 415 102 335 z m 165 187 b 584 363 165 308 297 363 b 715 360 625 363 668 363 l 715 161 b 376 42 638 101 507 42 b 165 187 231 42 165 93 z m 378 801 l 412 765 l 628 953 l 585 999 z "},"â":{"ha":908,"x_min":0,"x_max":0,"o":"m 102 184 b 367 -12 102 24 240 -12 b 715 101 521 -12 648 52 l 726 0 l 775 0 l 775 436 b 478 690 775 602 679 690 b 174 630 338 690 240 657 l 192 576 b 478 635 246 599 349 635 b 715 434 630 635 715 578 l 715 410 b 566 415 662 413 612 415 b 102 184 236 415 102 335 z m 165 187 b 584 363 165 308 297 363 b 715 360 625 363 668 363 l 715 161 b 376 42 638 101 507 42 b 165 187 231 42 165 93 z m 280 800 l 322 765 l 474 948 l 623 765 l 666 801 l 511 987 l 438 987 z "},"ã":{"ha":908,"x_min":0,"x_max":0,"o":"m 102 184 b 367 -12 102 24 240 -12 b 715 101 521 -12 648 52 l 726 0 l 775 0 l 775 436 b 478 690 775 602 679 690 b 174 630 338 690 240 657 l 192 576 b 478 635 246 599 349 635 b 715 434 630 635 715 578 l 715 410 b 566 415 662 413 612 415 b 102 184 236 415 102 335 z m 165 187 b 584 363 165 308 297 363 b 715 360 625 363 668 363 l 715 161 b 376 42 638 101 507 42 b 165 187 231 42 165 93 z m 238 804 l 280 778 b 376 850 302 824 333 850 b 460 815 406 850 432 833 b 572 775 491 797 529 775 b 712 880 630 775 678 802 l 669 905 b 571 828 642 848 615 828 b 479 869 540 828 512 850 b 378 903 449 885 415 903 b 238 804 321 903 268 878 z "},"ä":{"ha":908,"x_min":0,"x_max":0,"o":"m 102 184 b 367 -12 102 24 240 -12 b 715 101 521 -12 648 52 l 726 0 l 775 0 l 775 436 b 478 690 775 602 679 690 b 174 630 338 690 240 657 l 192 576 b 478 635 246 599 349 635 b 715 434 630 635 715 578 l 715 410 b 566 415 662 413 612 415 b 102 184 236 415 102 335 z m 165 187 b 584 363 165 308 297 363 b 715 360 625 363 668 363 l 715 161 b 376 42 638 101 507 42 b 165 187 231 42 165 93 z m 351 787 l 412 787 l 412 890 l 351 890 z m 535 787 l 597 787 l 597 890 l 535 890 z "},"å":{"ha":908,"x_min":0,"x_max":0,"o":"m 102 184 b 367 -12 102 24 240 -12 b 715 101 521 -12 648 52 l 726 0 l 775 0 l 775 436 b 478 690 775 602 679 690 b 174 630 338 690 240 657 l 192 576 b 478 635 246 599 349 635 b 715 434 630 635 715 578 l 715 410 b 566 415 662 413 612 415 b 102 184 236 415 102 335 z m 165 187 b 584 363 165 308 297 363 b 715 360 625 363 668 363 l 715 161 b 376 42 638 101 507 42 b 165 187 231 42 165 93 z m 344 878 b 479 758 344 808 394 758 b 614 878 560 758 614 808 b 479 996 614 947 560 996 b 344 878 399 996 344 947 z m 393 877 b 479 954 393 919 424 954 b 565 877 534 954 565 919 b 479 800 565 835 533 800 b 393 877 424 800 393 835 z "},"ā":{"ha":908,"x_min":0,"x_max":0,"o":"m 102 184 b 367 -12 102 24 240 -12 b 715 101 521 -12 648 52 l 726 0 l 775 0 l 775 436 b 478 690 775 602 679 690 b 174 630 338 690 240 657 l 192 576 b 478 635 246 599 349 635 b 715 434 630 635 715 578 l 715 410 b 566 415 662 413 612 415 b 102 184 236 415 102 335 z m 165 187 b 584 363 165 308 297 363 b 715 360 625 363 668 363 l 715 161 b 376 42 638 101 507 42 b 165 187 231 42 165 93 z m 289 787 l 672 787 l 672 840 l 289 840 z "},"ă":{"ha":908,"x_min":0,"x_max":0,"o":"m 102 184 b 367 -12 102 24 240 -12 b 715 101 521 -12 648 52 l 726 0 l 775 0 l 775 436 b 478 690 775 602 679 690 b 174 630 338 690 240 657 l 192 576 b 478 635 246 599 349 635 b 715 434 630 635 715 578 l 715 410 b 566 415 662 413 612 415 b 102 184 236 415 102 335 z m 165 187 b 584 363 165 308 297 363 b 715 360 625 363 668 363 l 715 161 b 376 42 638 101 507 42 b 165 187 231 42 165 93 z m 313 939 b 483 765 319 847 356 765 b 653 939 608 765 645 851 l 602 946 b 483 813 590 835 541 813 b 363 946 426 813 376 835 z "},"ą":{"ha":920,"x_min":0,"x_max":0,"o":"m 533 -159 b 681 -284 533 -242 587 -284 b 798 -266 736 -284 781 -271 l 785 -222 b 682 -238 760 -231 722 -238 b 585 -155 640 -238 585 -222 b 775 0 585 -102 644 -47 l 775 436 b 478 690 775 602 679 690 b 174 630 338 690 240 657 l 192 576 b 478 635 246 599 349 635 b 715 434 630 635 715 578 l 715 410 b 566 415 662 413 612 415 b 102 184 236 415 102 335 b 367 -12 102 24 240 -12 b 715 101 521 -12 648 52 l 723 24 b 533 -159 603 -24 533 -83 z m 165 187 b 584 363 165 308 297 363 b 715 360 625 363 668 363 l 715 161 b 376 42 638 101 507 42 b 165 187 231 42 165 93 z "},"ǻ":{"ha":908,"x_min":0,"x_max":0,"o":"m 369 1064 l 394 1022 l 624 1136 l 590 1190 z m 102 184 b 367 -12 102 24 240 -12 b 715 101 521 -12 648 52 l 726 0 l 775 0 l 775 436 b 478 690 775 602 679 690 b 174 630 338 690 240 657 l 192 576 b 478 635 246 599 349 635 b 715 434 630 635 715 578 l 715 410 b 566 415 662 413 612 415 b 102 184 236 415 102 335 z m 165 187 b 584 363 165 308 297 363 b 715 360 625 363 668 363 l 715 161 b 376 42 638 101 507 42 b 165 187 231 42 165 93 z m 342 873 b 476 753 342 803 392 753 b 611 873 558 753 611 803 b 476 991 611 942 557 991 b 342 873 396 991 342 942 z m 390 872 b 476 949 390 915 422 949 b 562 872 531 949 562 915 b 476 795 562 830 531 795 b 390 872 422 795 390 830 z "},"b":{"ha":965,"x_min":0,"x_max":0,"o":"m 206 78 b 510 -12 255 45 355 -12 b 862 332 729 -12 862 122 b 515 688 862 560 728 688 b 208 581 373 688 260 621 l 208 982 l 148 982 l 148 0 l 196 0 z m 208 139 l 208 516 b 508 633 263 563 375 633 b 799 331 673 633 799 542 b 507 44 799 141 676 44 b 208 139 409 44 312 69 z "},"c":{"ha":867,"x_min":0,"x_max":0,"o":"m 103 333 b 493 -12 103 115 258 -12 b 778 55 601 -12 685 13 l 753 106 b 497 44 685 76 603 44 b 167 333 302 44 167 147 b 503 633 167 531 315 633 b 747 587 573 633 652 620 l 767 642 b 508 688 701 665 611 688 b 103 333 278 688 103 567 z "},"ç":{"ha":867,"x_min":0,"x_max":0,"o":"m 103 333 b 451 -10 103 128 240 4 b 549 -147 528 -50 549 -100 b 442 -236 549 -217 483 -236 b 345 -222 405 -236 367 -228 l 333 -267 b 440 -283 347 -271 383 -283 b 603 -151 540 -283 603 -233 b 533 -10 603 -94 582 -49 b 778 55 623 -6 697 18 l 753 106 b 497 44 685 76 603 44 b 167 333 302 44 167 147 b 503 633 167 531 315 633 b 747 587 573 633 652 620 l 767 642 b 508 688 701 665 611 688 b 103 333 278 688 103 567 z "},"ć":{"ha":867,"x_min":0,"x_max":0,"o":"m 103 333 b 493 -12 103 115 258 -12 b 778 55 601 -12 685 13 l 753 106 b 497 44 685 76 603 44 b 167 333 302 44 167 147 b 503 633 167 531 315 633 b 747 587 573 633 652 620 l 767 642 b 508 688 701 665 611 688 b 103 333 278 688 103 567 z m 389 801 l 423 765 l 640 953 l 596 999 z "},"ĉ":{"ha":867,"x_min":0,"x_max":0,"o":"m 103 333 b 493 -12 103 115 258 -12 b 778 55 601 -12 685 13 l 753 106 b 497 44 685 76 603 44 b 167 333 302 44 167 147 b 503 633 167 531 315 633 b 747 587 573 633 652 620 l 767 642 b 508 688 701 665 611 688 b 103 333 278 688 103 567 z m 290 801 l 331 766 l 483 949 l 633 766 l 676 803 l 521 988 l 447 988 z "},"ċ":{"ha":867,"x_min":0,"x_max":0,"o":"m 457 890 l 457 787 l 518 787 l 518 890 z m 103 333 b 493 -12 103 115 258 -12 b 778 55 601 -12 685 13 l 753 106 b 497 44 685 76 603 44 b 167 333 302 44 167 147 b 503 633 167 531 315 633 b 747 587 573 633 652 620 l 767 642 b 508 688 701 665 611 688 b 103 333 278 688 103 567 z "},"č":{"ha":867,"x_min":0,"x_max":0,"o":"m 103 333 b 493 -12 103 115 258 -12 b 778 55 601 -12 685 13 l 753 106 b 497 44 685 76 603 44 b 167 333 302 44 167 147 b 503 633 167 531 315 633 b 747 587 573 633 652 620 l 767 642 b 508 688 701 665 611 688 b 103 333 278 688 103 567 z m 294 956 l 449 771 l 523 771 l 679 958 l 639 993 l 487 808 l 337 993 z "},"d":{"ha":965,"x_min":0,"x_max":0,"o":"m 103 333 b 447 -12 103 109 249 -12 b 761 95 617 -12 722 65 l 769 0 l 818 0 l 818 982 l 758 982 l 758 590 b 468 688 689 644 599 688 b 103 333 262 688 103 567 z m 167 333 b 466 633 167 531 297 633 b 758 524 567 633 674 598 l 758 154 b 454 43 706 112 604 43 b 167 333 287 43 167 145 z "},"ď":{"ha":1022,"x_min":0,"x_max":0,"o":"m 1001 988 l 960 743 l 1013 735 l 1063 978 z m 103 333 b 447 -12 103 109 249 -12 b 761 95 617 -12 722 65 l 769 0 l 818 0 l 818 982 l 758 982 l 758 590 b 468 688 689 644 599 688 b 103 333 262 688 103 567 z m 167 333 b 466 633 167 531 297 633 b 758 524 567 633 674 598 l 758 154 b 454 43 706 112 604 43 b 167 333 287 43 167 145 z "},"e":{"ha":933,"x_min":0,"x_max":0,"o":"m 480 -12 b 823 88 612 -12 708 21 l 795 135 b 486 43 704 81 616 43 b 167 309 287 43 177 147 l 827 309 b 833 364 830 325 833 340 b 482 688 833 583 667 688 b 103 337 276 688 103 563 b 480 -12 103 104 262 -12 z m 167 360 b 483 634 174 536 308 634 b 770 368 642 634 770 541 l 770 377 l 799 360 z "},"è":{"ha":933,"x_min":0,"x_max":0,"o":"m 330 953 l 547 765 l 581 799 l 376 999 z m 103 337 b 480 -12 103 104 262 -12 b 823 88 612 -12 708 21 l 795 135 b 486 43 704 81 616 43 b 167 309 287 43 177 147 l 827 309 b 833 364 830 325 833 340 b 482 688 833 583 667 688 b 103 337 276 688 103 563 z m 167 360 b 483 634 174 536 308 634 b 770 368 642 634 770 541 l 770 377 l 799 360 z "},"é":{"ha":933,"x_min":0,"x_max":0,"o":"m 480 -12 b 823 88 612 -12 708 21 l 795 135 b 486 43 704 81 616 43 b 167 309 287 43 177 147 l 827 309 b 833 364 830 325 833 340 b 482 688 833 583 667 688 b 103 337 276 688 103 563 b 480 -12 103 104 262 -12 z m 167 360 b 483 634 174 536 308 634 b 770 368 642 634 770 541 l 770 377 l 799 360 z m 413 801 l 447 765 l 663 953 l 619 999 z "},"ê":{"ha":933,"x_min":0,"x_max":0,"o":"m 285 803 l 327 768 l 479 951 l 628 768 l 672 805 l 517 990 l 443 990 z m 103 337 b 480 -12 103 104 262 -12 b 823 88 612 -12 708 21 l 795 135 b 486 43 704 81 616 43 b 167 309 287 43 177 147 l 827 309 b 833 364 830 325 833 340 b 482 688 833 583 667 688 b 103 337 276 688 103 563 z m 167 360 b 483 634 174 536 308 634 b 770 368 642 634 770 541 l 770 377 l 799 360 z "},"ë":{"ha":933,"x_min":0,"x_max":0,"o":"m 362 891 l 362 788 l 423 788 l 423 891 z m 103 337 b 480 -12 103 104 262 -12 b 823 88 612 -12 708 21 l 795 135 b 486 43 704 81 616 43 b 167 309 287 43 177 147 l 827 309 b 833 364 830 325 833 340 b 482 688 833 583 667 688 b 103 337 276 688 103 563 z m 167 360 b 483 634 174 536 308 634 b 770 368 642 634 770 541 l 770 377 l 799 360 z m 547 788 l 608 788 l 608 891 l 547 891 z "},"ē":{"ha":933,"x_min":0,"x_max":0,"o":"m 480 -12 b 823 88 612 -12 708 21 l 795 135 b 486 43 704 81 616 43 b 167 309 287 43 177 147 l 827 309 b 833 364 830 325 833 340 b 482 688 833 583 667 688 b 103 337 276 688 103 563 b 480 -12 103 104 262 -12 z m 167 360 b 483 634 174 536 308 634 b 770 368 642 634 770 541 l 770 377 l 799 360 z m 288 787 l 671 787 l 671 840 l 288 840 z "},"ĕ":{"ha":933,"x_min":0,"x_max":0,"o":"m 480 -12 b 823 88 612 -12 708 21 l 795 135 b 486 43 704 81 616 43 b 167 309 287 43 177 147 l 827 309 b 833 364 830 325 833 340 b 482 688 833 583 667 688 b 103 337 276 688 103 563 b 480 -12 103 104 262 -12 z m 167 360 b 483 634 174 536 308 634 b 770 368 642 634 770 541 l 770 377 l 799 360 z m 308 939 b 478 765 315 847 351 765 b 649 939 604 765 641 851 l 598 946 b 479 813 585 835 537 813 b 359 946 422 813 372 835 z "},"ė":{"ha":933,"x_min":0,"x_max":0,"o":"m 450 890 l 450 787 l 511 787 l 511 890 z m 103 337 b 480 -12 103 104 262 -12 b 823 88 612 -12 708 21 l 795 135 b 486 43 704 81 616 43 b 167 309 287 43 177 147 l 827 309 b 833 364 830 325 833 340 b 482 688 833 583 667 688 b 103 337 276 688 103 563 z m 167 360 b 483 634 174 536 308 634 b 770 368 642 634 770 541 l 770 377 l 799 360 z "},"ę":{"ha":983,"x_min":0,"x_max":0,"o":"m 713 -284 b 819 -267 763 -284 805 -272 l 808 -222 b 713 -236 785 -229 750 -236 b 617 -147 674 -236 617 -217 b 764 56 617 -78 672 -8 b 823 88 783 65 803 76 l 795 135 b 486 43 704 81 616 43 b 167 309 287 43 177 147 l 827 309 b 833 364 830 325 833 340 b 482 688 833 583 667 688 b 103 337 276 688 103 563 b 480 -12 103 104 262 -12 b 640 7 539 -12 590 -6 b 563 -153 592 -39 563 -91 b 713 -284 563 -236 619 -284 z m 167 360 b 483 634 174 536 308 634 b 770 368 642 634 770 541 l 770 377 l 799 360 z "},"ě":{"ha":933,"x_min":0,"x_max":0,"o":"m 480 -12 b 823 88 612 -12 708 21 l 795 135 b 486 43 704 81 616 43 b 167 309 287 43 177 147 l 827 309 b 833 364 830 325 833 340 b 482 688 833 583 667 688 b 103 337 276 688 103 563 b 480 -12 103 104 262 -12 z m 167 360 b 483 634 174 536 308 634 b 770 368 642 634 770 541 l 770 377 l 799 360 z m 285 956 l 440 771 l 514 771 l 670 958 l 630 993 l 478 808 l 328 993 z "},"f":{"ha":660,"x_min":0,"x_max":0,"o":"m 219 622 l 219 0 l 279 0 l 279 622 l 655 622 l 655 674 l 279 674 l 279 781 b 487 936 279 908 353 936 b 680 913 579 936 631 924 l 692 967 b 482 992 653 976 580 992 b 219 790 319 992 219 946 l 219 674 l 81 674 l 81 622 z "},"g":{"ha":978,"x_min":0,"x_max":0,"o":"m 459 -290 b 831 26 677 -290 831 -193 l 831 674 l 782 674 l 775 587 b 484 688 706 642 617 688 b 116 338 278 688 116 568 b 459 -1 116 118 259 -1 b 772 108 626 -1 729 76 l 772 25 b 459 -235 772 -210 558 -235 b 174 -165 340 -235 246 -204 l 150 -219 b 459 -290 210 -251 306 -290 z m 180 339 b 485 633 180 533 313 633 b 772 524 585 633 688 597 l 772 169 b 466 54 719 125 615 54 b 180 339 294 54 180 154 z "},"ĝ":{"ha":978,"x_min":0,"x_max":0,"o":"m 319 801 l 360 766 l 513 949 l 662 766 l 705 803 l 550 988 l 476 988 z m 116 338 b 459 -1 116 118 259 -1 b 772 108 626 -1 729 76 l 772 25 b 459 -235 772 -210 558 -235 b 174 -165 340 -235 246 -204 l 150 -219 b 459 -290 210 -251 306 -290 b 831 26 677 -290 831 -193 l 831 674 l 782 674 l 775 587 b 484 688 706 642 617 688 b 116 338 278 688 116 568 z m 180 339 b 485 633 180 533 313 633 b 772 524 585 633 688 597 l 772 169 b 466 54 719 125 615 54 b 180 339 294 54 180 154 z "},"ğ":{"ha":978,"x_min":0,"x_max":0,"o":"m 459 -290 b 831 26 677 -290 831 -193 l 831 674 l 782 674 l 775 587 b 484 688 706 642 617 688 b 116 338 278 688 116 568 b 459 -1 116 118 259 -1 b 772 108 626 -1 729 76 l 772 25 b 459 -235 772 -210 558 -235 b 174 -165 340 -235 246 -204 l 150 -219 b 459 -290 210 -251 306 -290 z m 180 339 b 485 633 180 533 313 633 b 772 524 585 633 688 597 l 772 169 b 466 54 719 125 615 54 b 180 339 294 54 180 154 z m 326 939 b 497 765 333 847 369 765 b 667 939 622 765 659 851 l 616 946 b 497 813 603 835 555 813 b 377 946 440 813 390 835 z "},"ġ":{"ha":978,"x_min":0,"x_max":0,"o":"m 462 890 l 462 787 l 523 787 l 523 890 z m 116 338 b 459 -1 116 118 259 -1 b 772 108 626 -1 729 76 l 772 25 b 459 -235 772 -210 558 -235 b 174 -165 340 -235 246 -204 l 150 -219 b 459 -290 210 -251 306 -290 b 831 26 677 -290 831 -193 l 831 674 l 782 674 l 775 587 b 484 688 706 642 617 688 b 116 338 278 688 116 568 z m 180 339 b 485 633 180 533 313 633 b 772 524 585 633 688 597 l 772 169 b 466 54 719 125 615 54 b 180 339 294 54 180 154 z "},"ģ":{"ha":978,"x_min":0,"x_max":0,"o":"m 560 1058 l 524 1072 l 458 930 l 458 797 l 510 797 l 510 925 z m 116 338 b 459 -1 116 118 259 -1 b 772 108 626 -1 729 76 l 772 25 b 459 -235 772 -210 558 -235 b 174 -165 340 -235 246 -204 l 150 -219 b 459 -290 210 -251 306 -290 b 831 26 677 -290 831 -193 l 831 674 l 782 674 l 775 587 b 484 688 706 642 617 688 b 116 338 278 688 116 568 z m 180 339 b 485 633 180 533 313 633 b 772 524 585 633 688 597 l 772 169 b 466 54 719 125 615 54 b 180 339 294 54 180 154 z "},"h":{"ha":949,"x_min":0,"x_max":0,"o":"m 148 982 l 148 0 l 208 0 l 208 531 b 544 633 234 548 363 633 b 756 419 678 633 756 572 l 756 0 l 816 0 l 816 431 b 545 689 816 632 688 689 b 208 590 377 689 251 617 l 208 982 z "},"ĥ":{"ha":949,"x_min":0,"x_max":0,"o":"m 278 1085 l 318 1049 l 502 1220 l 685 1049 l 724 1086 l 535 1259 l 472 1259 z m 148 0 l 208 0 l 208 531 b 544 633 234 548 363 633 b 756 419 678 633 756 572 l 756 0 l 816 0 l 816 431 b 545 689 816 632 688 689 b 208 590 377 689 251 617 l 208 982 l 148 982 z "},"i":{"ha":355,"x_min":0,"x_max":0,"o":"m 148 674 l 148 0 l 208 0 l 208 674 z m 148 787 l 208 787 l 208 891 l 148 891 z "},"ì":{"ha":355,"x_min":0,"x_max":0,"o":"m -31 952 l 186 765 l 220 799 l 15 998 z m 148 0 l 208 0 l 208 674 l 148 674 z "},"í":{"ha":355,"x_min":0,"x_max":0,"o":"m 148 674 l 148 0 l 208 0 l 208 674 z m 141 801 l 175 765 l 392 953 l 348 999 z "},"î":{"ha":355,"x_min":0,"x_max":0,"o":"m -12 800 l 29 765 l 181 948 l 331 765 l 374 801 l 219 987 l 145 987 z m 148 0 l 208 0 l 208 674 l 148 674 z "},"ï":{"ha":355,"x_min":0,"x_max":0,"o":"m 53 890 l 53 787 l 114 787 l 114 890 z m 148 0 l 208 0 l 208 674 l 148 674 z m 238 787 l 299 787 l 299 890 l 238 890 z "},"ĩ":{"ha":355,"x_min":0,"x_max":0,"o":"m 148 674 l 148 0 l 208 0 l 208 674 z m -58 804 l -15 778 b 81 850 7 824 38 850 b 165 815 110 850 137 833 b 276 775 196 797 234 775 b 417 880 335 775 383 802 l 374 905 b 276 828 347 848 319 828 b 184 869 244 828 217 850 b 83 903 154 885 119 903 b -58 804 26 903 -27 878 z "},"ī":{"ha":355,"x_min":0,"x_max":0,"o":"m 148 674 l 148 0 l 208 0 l 208 674 z m -13 787 l 369 787 l 369 840 l -13 840 z "},"ĭ":{"ha":355,"x_min":0,"x_max":0,"o":"m 148 674 l 148 0 l 208 0 l 208 674 z m 8 939 b 178 765 15 847 51 765 b 348 939 303 765 340 851 l 297 946 b 178 813 285 835 236 813 b 58 946 121 813 71 835 z "},"į":{"ha":355,"x_min":0,"x_max":0,"o":"m 164 -284 b 275 -267 218 -284 260 -272 l 263 -222 b 164 -236 240 -229 200 -236 b 69 -148 115 -236 69 -207 b 208 0 69 -92 113 -49 l 208 674 l 148 674 l 148 18 b 15 -153 65 -28 15 -80 b 164 -284 15 -235 70 -284 z m 148 787 l 208 787 l 208 891 l 148 891 z "},"j":{"ha":419,"x_min":0,"x_max":0,"o":"m 23 -231 l 46 -288 b 272 4 207 -215 272 -147 l 272 674 l 212 674 l 212 6 b 23 -231 212 -115 144 -176 z m 212 788 l 272 788 l 272 892 l 212 892 z "},"ĵ":{"ha":396,"x_min":0,"x_max":0,"o":"m 34 800 l 76 765 l 228 948 l 377 765 l 420 801 l 265 987 l 192 987 z m 8 -233 l 32 -288 b 257 4 192 -215 257 -147 l 257 674 l 197 674 l 197 6 b 8 -233 197 -116 131 -176 z "},"k":{"ha":897,"x_min":0,"x_max":0,"o":"m 489 381 l 781 -12 l 828 22 l 535 418 l 806 640 l 771 684 l 208 219 l 208 982 l 148 982 l 148 0 l 208 0 l 208 149 z "},"ķ":{"ha":897,"x_min":0,"x_max":0,"o":"m 408 -354 l 444 -369 l 509 -226 l 509 -94 l 458 -94 l 458 -222 z m 148 0 l 208 0 l 208 149 l 489 381 l 781 -12 l 828 22 l 535 418 l 806 640 l 771 684 l 208 219 l 208 982 l 148 982 z "},"l":{"ha":355,"x_min":0,"x_max":0,"o":"m 148 982 l 148 0 l 208 0 l 208 982 z "},"ĺ":{"ha":355,"x_min":0,"x_max":0,"o":"m 140 1097 l 167 1052 l 437 1188 l 408 1240 z m 148 0 l 208 0 l 208 982 l 148 982 z "},"ļ":{"ha":355,"x_min":0,"x_max":0,"o":"m 110 -355 l 146 -369 l 211 -227 l 211 -94 l 160 -94 l 160 -222 z m 148 0 l 208 0 l 208 982 l 148 982 z "},"ľ":{"ha":406,"x_min":0,"x_max":0,"o":"m 383 988 l 342 742 l 394 735 l 444 978 z m 148 0 l 208 0 l 208 982 l 148 982 z "},"m":{"ha":1492,"x_min":0,"x_max":0,"o":"m 148 674 l 148 0 l 208 0 l 208 530 b 530 633 231 544 361 633 b 723 471 656 633 723 565 l 723 0 l 783 0 l 783 528 b 1107 633 824 555 946 633 b 1299 422 1235 633 1299 574 l 1299 0 l 1359 0 l 1359 432 b 1110 688 1359 630 1256 688 b 763 574 942 688 822 613 b 533 688 719 659 633 688 b 208 587 374 688 257 618 l 199 674 z "},"n":{"ha":978,"x_min":0,"x_max":0,"o":"m 148 674 l 148 0 l 208 0 l 208 528 b 558 633 231 544 364 633 b 785 422 703 633 785 572 l 785 0 l 844 0 l 844 433 b 558 689 844 633 713 689 b 208 587 372 689 244 610 l 199 674 z "},"ñ":{"ha":978,"x_min":0,"x_max":0,"o":"m 148 674 l 148 0 l 208 0 l 208 528 b 558 633 231 544 364 633 b 785 422 703 633 785 572 l 785 0 l 844 0 l 844 433 b 558 689 844 633 713 689 b 208 587 372 689 244 610 l 199 674 z m 272 804 l 314 778 b 410 850 336 824 367 850 b 494 815 440 850 466 833 b 606 775 525 797 563 775 b 746 880 664 775 712 802 l 703 905 b 605 828 676 848 649 828 b 513 869 574 828 546 850 b 413 903 483 885 449 903 b 272 804 355 903 302 878 z "},"ń":{"ha":978,"x_min":0,"x_max":0,"o":"m 409 801 l 443 765 l 660 953 l 616 999 z m 148 0 l 208 0 l 208 528 b 558 633 231 544 364 633 b 785 422 703 633 785 572 l 785 0 l 844 0 l 844 433 b 558 689 844 633 713 689 b 208 587 372 689 244 610 l 199 674 l 148 674 z "},"ņ":{"ha":978,"x_min":0,"x_max":0,"o":"m 438 -354 l 474 -369 l 540 -226 l 540 -94 l 488 -94 l 488 -222 z m 148 0 l 208 0 l 208 528 b 558 633 231 544 364 633 b 785 422 703 633 785 572 l 785 0 l 844 0 l 844 433 b 558 689 844 633 713 689 b 208 587 372 689 244 610 l 199 674 l 148 674 z "},"ň":{"ha":978,"x_min":0,"x_max":0,"o":"m 319 956 l 474 771 l 548 771 l 704 958 l 664 993 l 512 808 l 362 993 z m 148 0 l 208 0 l 208 528 b 558 633 231 544 364 633 b 785 422 703 633 785 572 l 785 0 l 844 0 l 844 433 b 558 689 844 633 713 689 b 208 587 372 689 244 610 l 199 674 l 148 674 z "},"o":{"ha":988,"x_min":0,"x_max":0,"o":"m 103 338 b 494 -11 103 113 279 -11 b 884 338 707 -11 884 113 b 494 689 884 565 706 689 b 103 338 281 689 103 565 z m 167 338 b 494 633 167 523 308 633 b 820 338 679 633 820 523 b 494 44 820 154 679 44 b 167 338 308 44 167 154 z "},"ò":{"ha":988,"x_min":0,"x_max":0,"o":"m 340 953 l 557 765 l 591 799 l 386 999 z m 103 338 b 494 -11 103 113 279 -11 b 884 338 707 -11 884 113 b 494 689 884 565 706 689 b 103 338 281 689 103 565 z m 167 338 b 494 633 167 523 308 633 b 820 338 679 633 820 523 b 494 44 820 154 679 44 b 167 338 308 44 167 154 z "},"ó":{"ha":988,"x_min":0,"x_max":0,"o":"m 429 800 l 463 765 l 680 952 l 636 998 z m 103 338 b 494 -11 103 113 279 -11 b 884 338 707 -11 884 113 b 494 689 884 565 706 689 b 103 338 281 689 103 565 z m 167 338 b 494 633 167 523 308 633 b 820 338 679 633 820 523 b 494 44 820 154 679 44 b 167 338 308 44 167 154 z "},"ô":{"ha":988,"x_min":0,"x_max":0,"o":"m 300 800 l 342 765 l 494 948 l 643 765 l 686 801 l 531 987 l 458 987 z m 103 338 b 494 -11 103 113 279 -11 b 884 338 707 -11 884 113 b 494 689 884 565 706 689 b 103 338 281 689 103 565 z m 167 338 b 494 633 167 523 308 633 b 820 338 679 633 820 523 b 494 44 820 154 679 44 b 167 338 308 44 167 154 z "},"õ":{"ha":988,"x_min":0,"x_max":0,"o":"m 103 338 b 494 -11 103 113 279 -11 b 884 338 707 -11 884 113 b 494 689 884 565 706 689 b 103 338 281 689 103 565 z m 167 338 b 494 633 167 523 308 633 b 820 338 679 633 820 523 b 494 44 820 154 679 44 b 167 338 308 44 167 154 z m 267 803 l 310 778 b 406 849 332 824 363 849 b 490 815 435 849 462 832 b 601 774 521 796 559 774 b 742 879 660 774 708 801 l 699 904 b 601 828 672 847 644 828 b 509 868 569 828 542 849 b 408 903 479 885 444 903 b 267 803 351 903 298 877 z "},"ö":{"ha":988,"x_min":0,"x_max":0,"o":"m 370 891 l 370 788 l 431 788 l 431 891 z m 103 338 b 494 -11 103 113 279 -11 b 884 338 707 -11 884 113 b 494 689 884 565 706 689 b 103 338 281 689 103 565 z m 167 338 b 494 633 167 523 308 633 b 820 338 679 633 820 523 b 494 44 820 154 679 44 b 167 338 308 44 167 154 z m 555 788 l 616 788 l 616 891 l 555 891 z "},"ō":{"ha":988,"x_min":0,"x_max":0,"o":"m 103 338 b 494 -11 103 113 279 -11 b 884 338 707 -11 884 113 b 494 689 884 565 706 689 b 103 338 281 689 103 565 z m 167 338 b 494 633 167 523 308 633 b 820 338 679 633 820 523 b 494 44 820 154 679 44 b 167 338 308 44 167 154 z m 302 787 l 685 787 l 685 840 l 302 840 z "},"ŏ":{"ha":988,"x_min":0,"x_max":0,"o":"m 103 338 b 494 -11 103 113 279 -11 b 884 338 707 -11 884 113 b 494 689 884 565 706 689 b 103 338 281 689 103 565 z m 167 338 b 494 633 167 523 308 633 b 820 338 679 633 820 523 b 494 44 820 154 679 44 b 167 338 308 44 167 154 z m 324 939 b 494 765 331 847 367 765 b 665 939 620 765 657 851 l 614 946 b 495 813 601 835 553 813 b 375 946 438 813 388 835 z "},"ő":{"ha":988,"x_min":0,"x_max":0,"o":"m 327 793 l 366 765 l 532 956 l 479 994 z m 103 338 b 494 -11 103 113 279 -11 b 884 338 707 -11 884 113 b 494 689 884 565 706 689 b 103 338 281 689 103 565 z m 167 338 b 494 633 167 523 308 633 b 820 338 679 633 820 523 b 494 44 820 154 679 44 b 167 338 308 44 167 154 z m 585 799 l 622 768 l 799 951 l 748 992 z "},"p":{"ha":965,"x_min":0,"x_max":0,"o":"m 148 674 l 148 -274 l 208 -274 l 208 78 b 510 -12 257 44 357 -12 b 862 332 729 -12 862 122 b 515 688 862 560 728 688 b 207 580 372 688 258 621 l 199 674 z m 208 139 l 208 519 b 508 633 263 565 375 633 b 799 331 673 633 799 542 b 507 44 799 141 676 44 b 208 139 409 44 312 69 z "},"q":{"ha":966,"x_min":0,"x_max":0,"o":"m 758 93 l 758 -274 l 818 -274 l 818 674 l 769 674 l 763 587 b 474 688 694 642 605 688 b 103 333 265 688 103 567 b 447 -12 103 109 249 -12 b 758 93 615 -12 717 62 z m 167 333 b 472 633 167 531 299 633 b 758 524 572 633 676 597 l 758 155 b 454 44 706 112 604 44 b 167 333 287 44 167 146 z "},"r":{"ha":582,"x_min":0,"x_max":0,"o":"m 148 0 l 208 0 l 208 499 b 565 631 332 578 431 619 l 559 690 b 208 555 423 681 316 631 l 199 674 l 148 674 z "},"ŕ":{"ha":582,"x_min":0,"x_max":0,"o":"m 148 0 l 208 0 l 208 499 b 565 631 332 578 431 619 l 559 690 b 208 555 423 681 316 631 l 199 674 l 148 674 z m 255 801 l 289 765 l 506 953 l 462 999 z "},"ŗ":{"ha":582,"x_min":0,"x_max":0,"o":"m 110 -355 l 146 -369 l 211 -227 l 211 -94 l 160 -94 l 160 -222 z m 148 0 l 208 0 l 208 499 b 565 631 332 578 431 619 l 559 690 b 208 555 423 681 316 631 l 199 674 l 148 674 z "},"ř":{"ha":582,"x_min":0,"x_max":0,"o":"m 148 0 l 208 0 l 208 499 b 565 631 332 578 431 619 l 559 690 b 208 555 423 681 316 631 l 199 674 l 148 674 z m 151 957 l 306 772 l 380 772 l 536 958 l 496 994 l 344 809 l 194 994 z "},"s":{"ha":851,"x_min":0,"x_max":0,"o":"m 108 106 l 85 53 b 419 -12 139 26 251 -12 b 760 192 628 -12 760 49 b 454 378 760 358 605 372 b 169 498 310 385 169 383 b 422 637 169 603 289 637 b 690 591 533 637 617 615 l 711 644 b 426 691 644 668 539 691 b 110 495 291 691 110 656 b 438 322 110 331 281 328 b 703 192 576 316 703 308 b 423 43 703 99 622 43 b 108 106 265 43 174 76 z "},"ś":{"ha":851,"x_min":0,"x_max":0,"o":"m 108 106 l 85 53 b 419 -12 139 26 251 -12 b 760 192 628 -12 760 49 b 454 378 760 358 605 372 b 169 498 310 385 169 383 b 422 637 169 603 289 637 b 690 591 533 637 617 615 l 711 644 b 426 691 644 668 539 691 b 110 495 291 691 110 656 b 438 322 110 331 281 328 b 703 192 576 316 703 308 b 423 43 703 99 622 43 b 108 106 265 43 174 76 z m 331 800 l 365 765 l 581 952 l 538 998 z "},"ŝ":{"ha":851,"x_min":0,"x_max":0,"o":"m 108 106 l 85 53 b 419 -12 139 26 251 -12 b 760 192 628 -12 760 49 b 454 378 760 358 605 372 b 169 498 310 385 169 383 b 422 637 169 603 289 637 b 690 591 533 637 617 615 l 711 644 b 426 691 644 668 539 691 b 110 495 291 691 110 656 b 438 322 110 331 281 328 b 703 192 576 316 703 308 b 423 43 703 99 622 43 b 108 106 265 43 174 76 z m 229 799 l 271 763 l 423 947 l 572 763 l 615 800 l 460 985 l 387 985 z "},"ş":{"ha":851,"x_min":0,"x_max":0,"o":"m 108 106 l 85 53 b 404 -12 138 27 244 -10 b 498 -146 478 -51 498 -100 b 392 -235 498 -217 432 -235 b 294 -221 354 -235 317 -228 l 283 -266 b 389 -283 297 -270 332 -283 b 552 -151 490 -283 552 -233 b 483 -10 552 -94 531 -48 b 760 192 655 2 760 64 b 454 378 760 358 605 372 b 169 498 310 385 169 383 b 422 637 169 603 289 637 b 690 591 533 637 617 615 l 711 644 b 426 691 644 668 539 691 b 110 495 291 691 110 656 b 438 322 110 331 281 328 b 703 192 576 316 703 308 b 423 43 703 99 622 43 b 108 106 265 43 174 76 z "},"š":{"ha":851,"x_min":0,"x_max":0,"o":"m 108 106 l 85 53 b 419 -12 139 26 251 -12 b 760 192 628 -12 760 49 b 454 378 760 358 605 372 b 169 498 310 385 169 383 b 422 637 169 603 289 637 b 690 591 533 637 617 615 l 711 644 b 426 691 644 668 539 691 b 110 495 291 691 110 656 b 438 322 110 331 281 328 b 703 192 576 316 703 308 b 423 43 703 99 622 43 b 108 106 265 43 174 76 z m 240 958 l 394 772 l 469 772 l 625 959 l 585 994 l 433 810 l 283 994 z "},"ș":{"ha":851,"x_min":0,"x_max":0,"o":"m 361 -355 l 397 -369 l 463 -227 l 463 -94 l 411 -94 l 411 -222 z m 85 53 b 419 -12 139 26 251 -12 b 760 192 628 -12 760 49 b 454 378 760 358 605 372 b 169 498 310 385 169 383 b 422 637 169 603 289 637 b 690 591 533 637 617 615 l 711 644 b 426 691 644 668 539 691 b 110 495 291 691 110 656 b 438 322 110 331 281 328 b 703 192 576 316 703 308 b 423 43 703 99 622 43 b 108 106 265 43 174 76 z "},"t":{"ha":721,"x_min":0,"x_max":0,"o":"m 230 163 b 456 -12 230 21 315 -12 b 655 17 537 -12 630 11 l 644 71 b 460 44 623 65 536 44 b 290 172 351 44 290 64 l 290 622 l 636 622 l 636 674 l 290 674 l 290 856 l 230 856 l 230 674 l 78 674 l 78 622 l 230 622 z "},"ţ":{"ha":721,"x_min":0,"x_max":0,"o":"m 322 -361 l 358 -376 l 423 -233 l 423 -101 l 372 -101 l 372 -228 z m 78 622 l 230 622 l 230 163 b 456 -12 230 21 315 -12 b 655 17 537 -12 630 11 l 644 71 b 460 44 623 65 536 44 b 290 172 351 44 290 64 l 290 622 l 636 622 l 636 674 l 290 674 l 290 856 l 230 856 l 230 674 l 78 674 z "},"ť":{"ha":721,"x_min":0,"x_max":0,"o":"m 467 1076 l 426 831 l 478 823 l 528 1066 z m 78 622 l 230 622 l 230 163 b 456 -12 230 21 315 -12 b 655 17 537 -12 630 11 l 644 71 b 460 44 623 65 536 44 b 290 172 351 44 290 64 l 290 622 l 636 622 l 636 674 l 290 674 l 290 856 l 230 856 l 230 674 l 78 674 z "},"ț":{"ha":721,"x_min":0,"x_max":0,"o":"m 351 -354 l 388 -369 l 453 -226 l 453 -94 l 401 -94 l 401 -222 z m 78 622 l 230 622 l 230 163 b 456 -12 230 21 315 -12 b 655 17 537 -12 630 11 l 644 71 b 460 44 623 65 536 44 b 290 172 351 44 290 64 l 290 622 l 636 622 l 636 674 l 290 674 l 290 856 l 230 856 l 230 674 l 78 674 z "},"u":{"ha":991,"x_min":0,"x_max":0,"o":"m 133 292 b 429 -12 133 47 247 -12 b 788 92 599 -12 738 60 l 795 0 l 843 0 l 843 674 l 783 674 l 783 151 b 435 44 755 131 620 44 b 193 317 268 44 193 98 l 193 674 l 133 674 z "},"ù":{"ha":991,"x_min":0,"x_max":0,"o":"m 313 952 l 530 765 l 564 799 l 359 998 z m 133 292 b 429 -12 133 47 247 -12 b 788 92 599 -12 738 60 l 795 0 l 843 0 l 843 674 l 783 674 l 783 151 b 435 44 755 131 620 44 b 193 317 268 44 193 98 l 193 674 l 133 674 z "},"ú":{"ha":991,"x_min":0,"x_max":0,"o":"m 133 292 b 429 -12 133 47 247 -12 b 788 92 599 -12 738 60 l 795 0 l 843 0 l 843 674 l 783 674 l 783 151 b 435 44 755 131 620 44 b 193 317 268 44 193 98 l 193 674 l 133 674 z m 433 801 l 467 765 l 684 953 l 640 999 z "},"û":{"ha":991,"x_min":0,"x_max":0,"o":"m 307 801 l 349 765 l 501 949 l 650 765 l 693 802 l 538 988 l 465 988 z m 133 292 b 429 -12 133 47 247 -12 b 788 92 599 -12 738 60 l 795 0 l 843 0 l 843 674 l 783 674 l 783 151 b 435 44 755 131 620 44 b 193 317 268 44 193 98 l 193 674 l 133 674 z "},"ü":{"ha":991,"x_min":0,"x_max":0,"o":"m 369 890 l 369 787 l 430 787 l 430 890 z m 133 292 b 429 -12 133 47 247 -12 b 788 92 599 -12 738 60 l 795 0 l 843 0 l 843 674 l 783 674 l 783 151 b 435 44 755 131 620 44 b 193 317 268 44 193 98 l 193 674 l 133 674 z m 553 787 l 615 787 l 615 890 l 553 890 z "},"ũ":{"ha":991,"x_min":0,"x_max":0,"o":"m 133 292 b 429 -12 133 47 247 -12 b 788 92 599 -12 738 60 l 795 0 l 843 0 l 843 674 l 783 674 l 783 151 b 435 44 755 131 620 44 b 193 317 268 44 193 98 l 193 674 l 133 674 z m 265 804 l 307 778 b 403 850 329 824 360 850 b 488 815 433 850 459 833 b 599 775 518 797 556 775 b 739 880 657 775 705 802 l 696 905 b 598 828 669 848 642 828 b 506 869 567 828 539 850 b 406 903 476 885 442 903 b 265 804 348 903 295 878 z "},"ū":{"ha":991,"x_min":0,"x_max":0,"o":"m 133 292 b 429 -12 133 47 247 -12 b 788 92 599 -12 738 60 l 795 0 l 843 0 l 843 674 l 783 674 l 783 151 b 435 44 755 131 620 44 b 193 317 268 44 193 98 l 193 674 l 133 674 z m 301 787 l 684 787 l 684 840 l 301 840 z "},"ŭ":{"ha":991,"x_min":0,"x_max":0,"o":"m 133 292 b 429 -12 133 47 247 -12 b 788 92 599 -12 738 60 l 795 0 l 843 0 l 843 674 l 783 674 l 783 151 b 435 44 755 131 620 44 b 193 317 268 44 193 98 l 193 674 l 133 674 z m 323 939 b 493 765 330 847 366 765 b 663 939 619 765 656 851 l 613 946 b 494 813 600 835 551 813 b 374 946 436 813 386 835 z "},"ů":{"ha":991,"x_min":0,"x_max":0,"o":"m 133 292 b 429 -12 133 47 247 -12 b 788 92 599 -12 738 60 l 795 0 l 843 0 l 843 674 l 783 674 l 783 151 b 435 44 755 131 620 44 b 193 317 268 44 193 98 l 193 674 l 133 674 z m 360 878 b 494 758 360 808 410 758 b 629 878 576 758 629 808 b 494 996 629 947 575 996 b 360 878 414 996 360 947 z m 408 877 b 494 954 408 919 440 954 b 580 877 549 954 580 919 b 494 800 580 835 549 800 b 408 877 440 800 408 835 z "},"ű":{"ha":991,"x_min":0,"x_max":0,"o":"m 133 292 b 429 -12 133 47 247 -12 b 788 92 599 -12 738 60 l 795 0 l 843 0 l 843 674 l 783 674 l 783 151 b 435 44 755 131 620 44 b 193 317 268 44 193 98 l 193 674 l 133 674 z m 310 794 l 349 766 l 515 958 l 463 995 z m 568 800 l 606 769 l 782 952 l 731 994 z "},"ų":{"ha":991,"x_min":0,"x_max":0,"o":"m 615 -153 b 764 -284 615 -233 667 -284 b 876 -262 804 -284 849 -276 l 863 -219 b 766 -237 836 -231 800 -237 b 667 -149 728 -237 667 -220 b 843 0 667 -90 717 -40 l 843 674 l 783 674 l 783 151 b 435 44 755 131 620 44 b 193 317 268 44 193 98 l 193 674 l 133 674 l 133 292 b 429 -12 133 47 247 -12 b 788 92 599 -12 738 60 l 793 25 b 615 -153 674 -18 615 -76 z "},"v":{"ha":794,"x_min":0,"x_max":0,"o":"m 27 662 l 357 0 l 438 0 l 769 662 l 717 688 l 398 46 l 82 688 z "},"w":{"ha":1239,"x_min":0,"x_max":0,"o":"m 40 666 l 316 0 l 394 0 l 620 626 l 850 0 l 931 0 l 1199 665 l 1144 685 l 891 53 l 665 674 l 576 674 l 354 56 l 97 688 z "},"ŵ":{"ha":1239,"x_min":0,"x_max":0,"o":"m 425 801 l 467 765 l 619 949 l 768 765 l 811 802 l 656 988 l 583 988 z m 40 666 l 316 0 l 394 0 l 620 626 l 850 0 l 931 0 l 1199 665 l 1144 685 l 891 53 l 665 674 l 576 674 l 354 56 l 97 688 z "},"ẁ":{"ha":1239,"x_min":0,"x_max":0,"o":"m 418 952 l 635 765 l 669 799 l 464 998 z m 40 666 l 316 0 l 394 0 l 620 626 l 850 0 l 931 0 l 1199 665 l 1144 685 l 891 53 l 665 674 l 576 674 l 354 56 l 97 688 z "},"ẃ":{"ha":1239,"x_min":0,"x_max":0,"o":"m 581 801 l 615 765 l 832 953 l 788 999 z m 40 666 l 316 0 l 394 0 l 620 626 l 850 0 l 931 0 l 1199 665 l 1144 685 l 891 53 l 665 674 l 576 674 l 354 56 l 97 688 z "},"ẅ":{"ha":1239,"x_min":0,"x_max":0,"o":"m 496 890 l 496 787 l 557 787 l 557 890 z m 40 666 l 316 0 l 394 0 l 620 626 l 850 0 l 931 0 l 1199 665 l 1144 685 l 891 53 l 665 674 l 576 674 l 354 56 l 97 688 z m 681 787 l 742 787 l 742 890 l 681 890 z "},"x":{"ha":828,"x_min":0,"x_max":0,"o":"m 48 30 l 88 -10 l 415 318 l 747 -11 l 788 31 l 456 358 l 746 649 l 707 688 l 419 397 l 126 688 l 85 647 l 375 357 z "},"y":{"ha":808,"x_min":0,"x_max":0,"o":"m 304 -288 l 785 663 l 732 690 l 419 67 l 100 690 l 47 661 l 387 3 l 251 -261 z "},"ý":{"ha":808,"x_min":0,"x_max":0,"o":"m 304 -288 l 785 663 l 732 690 l 419 67 l 100 690 l 47 661 l 387 3 l 251 -261 z m 347 801 l 381 765 l 597 953 l 553 999 z "},"ÿ":{"ha":808,"x_min":0,"x_max":0,"o":"m 305 -287 l 786 663 l 733 690 l 420 68 l 101 690 l 48 662 l 388 3 l 252 -260 z m 297 788 l 358 788 l 358 891 l 297 891 z m 482 788 l 543 788 l 543 891 l 482 891 z "},"ŷ":{"ha":808,"x_min":0,"x_max":0,"o":"m 304 -288 l 785 663 l 732 690 l 419 67 l 100 690 l 47 661 l 387 3 l 251 -261 z m 235 801 l 277 766 l 429 949 l 578 766 l 622 803 l 467 988 l 393 988 z "},"z":{"ha":851,"x_min":0,"x_max":0,"o":"m 85 63 l 85 0 l 784 0 l 784 52 l 153 52 l 751 615 l 751 674 l 115 674 l 115 622 l 681 622 z "},"ź":{"ha":851,"x_min":0,"x_max":0,"o":"m 85 63 l 85 0 l 784 0 l 784 52 l 153 52 l 751 615 l 751 674 l 115 674 l 115 622 l 681 622 z m 347 801 l 381 765 l 598 953 l 554 999 z "},"ż":{"ha":851,"x_min":0,"x_max":0,"o":"m 408 890 l 408 787 l 469 787 l 469 890 z m 85 0 l 784 0 l 784 52 l 153 52 l 751 615 l 751 674 l 115 674 l 115 622 l 681 622 l 85 63 z "},"ž":{"ha":851,"x_min":0,"x_max":0,"o":"m 85 63 l 85 0 l 784 0 l 784 52 l 153 52 l 751 615 l 751 674 l 115 674 l 115 622 l 681 622 z m 253 957 l 407 772 l 481 772 l 638 958 l 597 994 l 445 809 l 295 994 z "},"ª":{"ha":626,"x_min":0,"x_max":0,"o":"m 97 560 b 254 443 97 472 172 443 b 469 504 340 443 417 476 l 476 451 l 519 451 l 519 676 b 322 857 519 803 453 857 b 138 825 259 857 193 844 l 151 781 b 323 811 184 792 247 811 b 466 697 422 811 458 777 b 403 698 444 697 423 698 b 97 560 189 698 97 654 z m 150 563 b 408 657 150 622 222 657 b 469 656 427 657 447 656 l 469 551 b 261 488 410 517 335 488 b 150 563 190 488 150 510 z "},"º":{"ha":651,"x_min":0,"x_max":0,"o":"m 77 652 b 326 442 77 513 193 442 b 574 652 457 442 574 513 b 326 862 574 790 458 862 b 77 652 194 862 77 790 z m 133 651 b 326 817 133 756 219 817 b 519 651 433 817 519 756 b 326 488 519 547 433 488 b 133 651 219 488 133 547 z "},"ß":{"ha":910,"x_min":0,"x_max":0,"o":"m 545 -12 b 826 248 699 -12 826 67 b 634 506 826 435 719 489 b 765 711 701 533 765 594 b 469 967 765 892 634 967 b 154 702 299 967 154 888 l 154 0 l 214 0 l 214 688 b 469 910 214 844 315 910 b 702 714 608 910 702 849 b 498 519 702 583 597 519 l 412 519 l 412 467 l 515 467 b 762 247 683 467 762 401 b 549 43 762 131 697 43 b 347 82 453 44 401 60 l 327 29 b 545 -12 377 6 446 -12 z "},"æ":{"ha":1406,"x_min":0,"x_max":0,"o":"m 1006 -12 b 1299 78 1126 -12 1218 20 l 1271 125 b 1008 42 1201 72 1116 42 b 728 312 865 42 738 115 l 1300 312 b 1304 376 1302 328 1304 352 b 1003 688 1304 562 1191 688 b 708 516 840 688 751 609 b 453 688 676 628 594 688 b 187 630 344 688 251 660 l 208 577 b 460 633 253 600 338 633 b 670 413 590 633 660 565 b 556 415 629 414 591 415 b 123 185 263 415 123 341 b 378 -12 123 24 257 -12 b 730 116 524 -12 651 54 b 1006 -12 781 40 869 -12 z m 186 187 b 563 364 186 297 293 364 b 670 361 597 364 633 363 b 669 337 669 353 669 344 b 704 163 669 276 680 216 b 385 42 626 99 499 42 b 186 187 252 42 186 92 z m 728 363 b 1003 634 735 525 828 634 b 1244 381 1172 634 1244 513 b 1244 363 1244 375 1244 369 z "},"ǽ":{"ha":1413,"x_min":0,"x_max":0,"o":"m 1006 -12 b 1299 78 1126 -12 1218 20 l 1271 125 b 1008 42 1201 72 1116 42 b 728 312 865 42 738 115 l 1300 312 b 1304 376 1302 328 1304 352 b 1003 688 1304 562 1191 688 b 708 516 840 688 751 609 b 453 688 676 628 594 688 b 187 630 344 688 251 660 l 208 577 b 460 633 253 600 338 633 b 670 413 590 633 660 565 b 556 415 629 414 591 415 b 123 185 263 415 123 341 b 378 -12 123 24 257 -12 b 730 116 524 -12 651 54 b 1006 -12 781 40 869 -12 z m 186 187 b 563 364 186 297 293 364 b 670 361 597 364 633 363 b 669 337 669 353 669 344 b 704 163 669 276 680 216 b 385 42 626 99 499 42 b 186 187 252 42 186 92 z m 661 801 l 695 766 l 912 953 l 868 999 z m 728 363 b 1003 634 735 525 828 634 b 1244 381 1172 634 1244 513 b 1244 363 1244 375 1244 369 z "},"ð":{"ha":984,"x_min":0,"x_max":0,"o":"m 469 -15 b 892 405 723 -15 892 142 b 637 897 892 551 833 782 l 694 995 l 649 1019 l 592 919 b 307 969 501 961 395 971 l 300 916 b 563 870 390 917 478 908 l 492 751 l 537 727 l 608 846 b 826 479 743 767 808 622 b 467 657 769 565 642 657 b 92 322 238 657 92 510 b 469 -15 92 88 288 -15 z m 155 320 b 467 601 155 492 283 601 b 833 389 620 601 756 524 b 473 41 825 152 660 41 b 155 320 297 41 155 143 z "},"ø":{"ha":986,"x_min":0,"x_max":0,"o":"m 80 29 l 117 -11 l 222 76 b 494 -11 292 19 388 -11 b 884 338 707 -11 884 113 b 805 563 884 431 854 506 l 906 647 l 870 688 l 765 601 b 494 689 694 659 599 689 b 103 338 281 689 103 565 b 182 115 103 246 133 171 z m 167 338 b 494 633 167 523 308 633 b 719 562 583 633 660 608 l 230 154 b 167 338 190 202 167 264 z m 269 115 l 758 524 b 820 338 797 476 820 413 b 494 44 820 154 679 44 b 269 115 405 44 326 69 z "},"ǿ":{"ha":986,"x_min":0,"x_max":0,"o":"m 80 29 l 117 -11 l 222 76 b 494 -11 292 19 388 -11 b 884 338 707 -11 884 113 b 805 563 884 431 854 506 l 906 647 l 870 688 l 765 601 b 494 689 694 659 599 689 b 103 338 281 689 103 565 b 182 115 103 246 133 171 z m 167 338 b 494 633 167 523 308 633 b 719 562 583 633 660 608 l 230 154 b 167 338 190 202 167 264 z m 269 115 l 758 524 b 820 338 797 476 820 413 b 494 44 820 154 679 44 b 269 115 405 44 326 69 z m 418 801 l 452 765 l 669 953 l 625 999 z "},"þ":{"ha":967,"x_min":0,"x_max":0,"o":"m 154 -274 l 214 -274 l 214 86 b 521 -12 260 51 372 -12 b 868 338 734 -12 868 113 b 526 691 868 566 730 691 b 214 588 374 691 258 620 l 214 982 l 154 982 z m 214 151 l 214 526 b 517 635 269 572 381 635 b 804 338 690 635 804 531 b 517 44 804 145 690 44 b 214 151 394 44 288 94 z "},"đ":{"ha":965,"x_min":0,"x_max":0,"o":"m 589 850 l 589 799 l 758 799 l 758 590 b 468 688 689 644 599 688 b 103 333 262 688 103 567 b 447 -12 103 109 249 -12 b 761 95 617 -12 722 65 l 769 0 l 818 0 l 818 799 l 949 799 l 949 850 l 818 850 l 818 982 l 758 982 l 758 850 z m 167 333 b 466 633 167 531 297 633 b 758 524 567 633 674 598 l 758 154 b 454 43 706 112 604 43 b 167 333 287 43 167 145 z "},"ħ":{"ha":949,"x_min":0,"x_max":0,"o":"m 67 857 l 67 806 l 148 806 l 148 0 l 208 0 l 208 531 b 544 633 234 548 363 633 b 756 419 678 633 756 572 l 756 0 l 816 0 l 816 431 b 545 689 816 632 688 689 b 208 590 377 689 251 617 l 208 806 l 427 806 l 427 857 l 208 857 l 208 982 l 148 982 l 148 857 z "},"ı":{"ha":355,"x_min":0,"x_max":0,"o":"m 148 674 l 148 0 l 208 0 l 208 674 z "},"ĳ":{"ha":869,"x_min":0,"x_max":0,"o":"m 217 674 l 217 0 l 277 0 l 277 674 z m 217 787 l 277 787 l 277 891 l 217 891 z m 472 -231 l 495 -288 b 721 4 656 -215 721 -147 l 721 674 l 661 674 l 661 6 b 472 -231 661 -115 594 -176 z m 661 788 l 721 788 l 721 892 l 661 892 z "},"ĸ":{"ha":892,"x_min":0,"x_max":0,"o":"m 490 385 l 776 -11 l 824 22 l 536 420 l 808 636 l 774 679 l 208 232 l 208 674 l 148 674 l 148 0 l 208 0 l 208 163 z "},"ŀ":{"ha":355,"x_min":0,"x_max":0,"o":"m 148 982 l 148 0 l 208 0 l 208 982 z m 317 435 l 387 435 l 387 566 l 317 566 z "},"ł":{"ha":385,"x_min":0,"x_max":0,"o":"m 6 383 l 28 335 l 149 392 l 149 0 l 209 0 l 209 420 l 394 506 l 372 553 l 209 478 l 209 982 l 149 982 l 149 449 z "},"ŉ":{"ha":978,"x_min":0,"x_max":0,"o":"m -42 738 l -6 723 l 59 865 l 59 998 l 8 998 l 8 870 z m 148 0 l 208 0 l 208 528 b 558 633 231 544 364 633 b 785 422 703 633 785 572 l 785 0 l 844 0 l 844 433 b 558 689 844 633 713 689 b 208 587 372 689 244 610 l 199 674 l 148 674 z "},"ŋ":{"ha":978,"x_min":0,"x_max":0,"o":"m 583 -231 l 593 -285 b 844 -10 756 -243 844 -177 l 844 433 b 563 688 844 633 713 688 b 208 587 373 688 255 615 l 199 674 l 148 674 l 148 0 l 208 0 l 208 529 b 561 633 231 544 364 633 b 785 422 703 633 785 571 l 785 -6 b 583 -231 785 -149 697 -195 z "},"œ":{"ha":1481,"x_min":0,"x_max":0,"o":"m 445 -12 b 761 192 588 -12 711 61 b 1085 -12 806 58 922 -12 b 1370 80 1206 -12 1288 22 l 1340 129 b 1087 43 1270 79 1200 43 b 795 309 915 43 802 145 l 1374 309 b 1378 364 1376 325 1378 340 b 1072 689 1378 566 1267 689 b 763 483 935 689 811 620 b 445 690 714 617 594 690 b 99 338 251 690 99 562 b 445 -12 99 111 259 -12 z m 160 338 b 446 634 160 528 291 634 b 732 335 599 634 732 532 b 444 44 732 157 603 44 b 160 338 288 44 160 154 z m 795 360 b 1072 633 802 549 934 633 b 1317 378 1223 633 1317 542 l 1317 360 z "},"ŧ":{"ha":721,"x_min":0,"x_max":0,"o":"m 369 375 l 369 356 l 345 356 l 345 375 z m 78 622 l 230 622 l 230 163 b 456 -12 230 21 315 -12 b 655 17 537 -12 630 11 l 644 71 b 460 44 623 65 536 44 b 290 172 351 44 290 64 l 290 622 l 636 622 l 636 674 l 290 674 l 290 856 l 230 856 l 230 674 l 78 674 z "},"ſ":{"ha":629,"x_min":0,"x_max":0,"o":"m 219 622 l 219 0 l 279 0 l 279 781 b 487 936 279 910 353 936 b 680 914 579 936 631 924 l 692 966 b 482 991 653 975 580 991 b 219 790 319 991 219 944 l 219 674 l 81 674 l 81 622 z "},"ȷ":{"ha":403,"x_min":0,"x_max":0,"o":"m 1 -233 l 24 -288 b 249 4 185 -215 249 -147 l 249 674 l 190 674 l 190 6 b 1 -233 190 -116 123 -176 z "},"π":{"ha":1124,"x_min":0,"x_max":0,"o":"m 747 163 b 922 -12 747 25 806 -12 b 1058 16 979 -12 1049 13 l 1044 67 b 928 42 1033 63 979 42 b 808 172 853 42 808 58 l 808 623 l 1032 623 l 1032 674 l 74 674 l 74 623 l 274 623 l 274 -1 l 336 -1 l 336 623 l 747 623 z "},"¼":{"ha":1652,"x_min":0,"x_max":0,"o":"m 164 463 l 164 413 l 625 413 l 625 463 l 427 463 l 427 895 l 379 895 l 204 851 l 214 803 l 374 841 l 374 463 z m 533 12 l 577 -21 l 1276 855 l 1232 888 z m 1035 150 l 1385 150 l 1385 53 l 1437 53 l 1437 150 l 1533 150 l 1533 197 l 1437 197 l 1437 542 l 1363 542 l 1035 197 z m 1097 197 l 1385 497 l 1385 197 z "},"½":{"ha":1750,"x_min":0,"x_max":0,"o":"m 164 463 l 164 413 l 625 413 l 625 463 l 427 463 l 427 895 l 379 895 l 204 851 l 214 803 l 374 841 l 374 463 z m 534 12 l 578 -21 l 1276 855 l 1233 888 z m 1127 59 l 1631 59 l 1631 108 l 1184 108 l 1184 126 b 1360 267 1184 179 1203 224 l 1474 297 b 1615 430 1562 322 1615 356 b 1400 553 1615 515 1538 553 b 1158 501 1325 553 1229 532 l 1178 454 b 1398 504 1251 487 1341 504 b 1557 426 1498 504 1557 483 b 1454 342 1557 390 1535 364 l 1344 312 b 1127 120 1154 259 1127 206 z "},"¾":{"ha":1674,"x_min":0,"x_max":0,"o":"m 371 393 b 637 546 527 393 637 430 b 502 674 637 599 604 666 b 598 785 573 692 598 736 b 405 904 598 878 508 904 b 174 860 308 904 216 877 l 189 816 b 402 858 250 840 343 858 b 542 783 517 858 542 821 b 366 685 542 723 502 685 l 256 686 l 256 640 l 381 640 b 581 543 519 640 581 615 b 378 441 581 476 513 441 b 149 486 277 441 211 460 l 131 441 b 371 393 169 423 248 393 z m 551 10 l 594 -22 l 1293 853 l 1249 886 z m 1058 150 l 1407 150 l 1407 53 l 1459 53 l 1459 150 l 1555 150 l 1555 197 l 1459 197 l 1459 542 l 1385 542 l 1058 197 z m 1119 197 l 1407 497 l 1407 197 z "},"_":{"ha":1006,"x_min":0,"x_max":0,"o":"m 44 -85 l 44 -137 l 960 -137 l 960 -85 z "},"-":{"ha":599,"x_min":0,"x_max":0,"o":"m 44 389 l 44 335 l 556 335 l 556 389 z "},"–":{"ha":860,"x_min":0,"x_max":0,"o":"m 44 389 l 44 339 l 816 339 l 816 389 z "},"—":{"ha":1292,"x_min":0,"x_max":0,"o":"m 44 389 l 44 343 l 1249 343 l 1249 389 z "},"(":{"ha":395,"x_min":0,"x_max":0,"o":"m 299 -75 l 345 -38 b 176 456 259 76 176 233 b 347 934 176 692 242 814 l 304 971 b 115 457 194 851 115 699 b 299 -75 115 190 224 17 z "},")":{"ha":399,"x_min":0,"x_max":0,"o":"m 61 -38 l 107 -75 b 292 457 183 17 292 190 b 102 971 292 699 213 851 l 59 934 b 231 456 164 814 230 692 b 61 -38 231 233 147 76 z "},"[":{"ha":476,"x_min":0,"x_max":0,"o":"m 163 978 l 163 -65 l 394 -65 l 394 -15 l 221 -15 l 221 928 l 394 928 l 394 978 z "},"]":{"ha":476,"x_min":0,"x_max":0,"o":"m 313 978 l 81 978 l 81 927 l 255 927 l 255 -15 l 81 -15 l 81 -66 l 313 -66 z "},"{":{"ha":556,"x_min":0,"x_max":0,"o":"m 460 -68 l 460 -18 b 288 94 324 -18 288 10 l 288 338 b 193 456 288 413 238 447 b 288 563 235 466 288 490 l 288 804 b 460 916 288 889 324 916 l 460 966 b 229 806 287 966 229 931 l 229 570 b 115 478 229 508 160 485 l 115 418 b 229 325 173 414 229 396 l 229 91 b 460 -68 229 -33 287 -68 z "},"}":{"ha":555,"x_min":0,"x_max":0,"o":"m 94 -18 l 94 -68 b 326 91 269 -68 326 -33 l 326 326 b 441 418 326 388 395 411 l 441 478 b 326 572 382 482 326 501 l 326 806 b 94 966 326 931 269 966 l 94 916 b 267 803 231 916 267 888 l 267 566 b 362 448 267 490 317 457 b 267 340 321 438 267 413 l 267 94 b 94 -18 267 9 231 -18 z "},"#":{"ha":1019,"x_min":0,"x_max":0,"o":"m 201 -2 l 252 -12 l 313 258 l 635 258 l 577 -2 l 628 -12 l 688 258 l 919 258 l 919 306 l 699 306 l 765 600 l 978 600 l 978 647 l 776 647 l 831 898 l 778 906 l 721 647 l 399 647 l 456 898 l 403 906 l 345 647 l 116 647 l 116 600 l 335 600 l 269 306 l 56 306 l 56 258 l 259 258 z m 324 306 l 389 600 l 710 600 l 645 306 z "},"%":{"ha":978,"x_min":0,"x_max":0,"o":"m 58 694 b 258 497 58 560 157 497 b 461 694 361 497 461 559 b 260 892 461 829 361 892 b 58 694 160 892 58 831 z m 115 694 b 260 840 115 793 178 840 b 404 694 340 840 404 793 b 260 548 404 595 341 548 b 115 694 179 548 115 595 z m 129 20 l 173 -11 l 857 865 l 815 897 z m 516 185 b 717 -11 516 51 615 -11 b 919 186 819 -11 919 51 b 718 383 919 320 819 383 b 516 185 618 383 516 322 z m 573 185 b 719 332 573 285 636 332 b 863 186 798 332 863 285 b 718 40 863 87 799 40 b 573 185 638 40 573 87 z "},"‰":{"ha":1455,"x_min":0,"x_max":0,"o":"m 58 709 b 258 512 58 575 157 512 b 461 709 361 512 461 574 b 260 907 461 844 361 907 b 58 709 160 907 58 846 z m 115 709 b 260 856 115 808 178 856 b 404 710 340 856 404 808 b 260 563 404 610 341 563 b 115 709 179 563 115 610 z m 119 20 l 163 -11 l 856 876 l 815 908 z m 516 185 b 716 -11 516 51 615 -11 b 919 186 819 -11 919 51 b 718 383 919 320 819 383 b 516 185 618 383 516 322 z m 572 185 b 718 332 572 285 636 332 b 863 186 797 332 863 285 b 718 40 863 87 799 40 b 572 185 637 40 572 87 z m 993 185 b 1194 -11 993 51 1092 -11 b 1397 186 1297 -11 1397 51 b 1196 383 1397 320 1297 383 b 993 185 1095 383 993 322 z m 1050 185 b 1196 332 1050 285 1114 332 b 1340 186 1275 332 1340 285 b 1195 40 1340 87 1276 40 b 1050 185 1115 40 1050 87 z "},"'":{"ha":245,"x_min":0,"x_max":0,"o":"m 92 895 l 101 597 l 144 597 l 153 895 z "},"\"":{"ha":405,"x_min":0,"x_max":0,"o":"m 252 895 l 261 597 l 303 597 l 313 895 z m 92 895 l 101 597 l 144 597 l 153 895 z "},"‘":{"ha":246,"x_min":0,"x_max":0,"o":"m 198 889 l 160 902 l 92 738 l 92 606 l 143 606 l 143 733 z "},"’":{"ha":246,"x_min":0,"x_max":0,"o":"m 81 613 l 119 599 l 188 763 l 188 896 l 136 896 l 136 768 z "},"“":{"ha":419,"x_min":0,"x_max":0,"o":"m 372 888 l 333 901 l 265 737 l 265 604 l 317 604 l 317 732 z m 92 604 l 143 604 l 143 732 l 198 888 l 160 901 l 92 737 z "},"”":{"ha":419,"x_min":0,"x_max":0,"o":"m 81 613 l 119 599 l 188 763 l 188 896 l 136 896 l 136 768 z m 255 613 l 293 599 l 361 763 l 361 896 l 310 896 l 310 768 z "},"‚":{"ha":288,"x_min":0,"x_max":0,"o":"m 106 -163 l 144 -176 l 212 -12 l 212 120 l 160 120 l 160 -8 z "},"„":{"ha":456,"x_min":0,"x_max":0,"o":"m 106 -163 l 144 -176 l 212 -12 l 212 120 l 160 120 l 160 -8 z m 279 -163 l 317 -176 l 385 -12 l 385 120 l 334 120 l 334 -8 z "},"‹":{"ha":419,"x_min":0,"x_max":0,"o":"m 44 339 l 319 -11 l 366 27 l 117 342 l 361 652 l 316 690 z "},"›":{"ha":419,"x_min":0,"x_max":0,"o":"m 375 341 l 100 691 l 53 653 l 302 338 l 58 28 l 103 -10 z "},"«":{"ha":661,"x_min":0,"x_max":0,"o":"m 44 339 l 316 -11 l 363 27 l 117 342 l 358 652 l 313 690 z m 286 339 l 561 -11 l 608 27 l 359 342 l 602 652 l 558 690 z "},"»":{"ha":661,"x_min":0,"x_max":0,"o":"m 617 339 l 349 690 l 303 652 l 544 342 l 298 27 l 345 -11 z m 53 27 l 100 -11 l 375 339 l 103 690 l 59 652 l 302 342 z "},"*":{"ha":448,"x_min":0,"x_max":0,"o":"m 200 667 l 200 525 l 248 525 l 248 667 l 380 590 l 403 631 l 270 708 l 402 783 l 379 823 l 248 747 l 248 887 l 200 887 l 200 747 l 69 823 l 46 784 l 178 708 l 44 631 l 68 590 z "},"†":{"ha":517,"x_min":0,"x_max":0,"o":"m 228 608 l 235 -85 l 282 -85 l 290 608 l 443 608 l 443 657 l 290 657 l 290 923 l 228 923 l 228 657 l 74 657 l 74 608 z "},"‡":{"ha":517,"x_min":0,"x_max":0,"o":"m 231 321 l 235 -85 l 282 -85 l 286 321 l 443 321 l 443 369 l 287 369 l 290 608 l 443 608 l 443 657 l 290 657 l 290 923 l 228 923 l 228 657 l 74 657 l 74 608 l 228 608 l 230 369 l 74 369 l 74 321 z "},".":{"ha":251,"x_min":0,"x_max":0,"o":"m 91 131 l 91 0 l 160 0 l 160 131 z "},",":{"ha":290,"x_min":0,"x_max":0,"o":"m 123 -199 l 193 -24 l 193 131 l 141 131 l 141 -18 l 85 -184 z "},":":{"ha":251,"x_min":0,"x_max":0,"o":"m 91 131 l 91 0 l 160 0 l 160 131 z m 91 543 l 160 543 l 160 674 l 91 674 z "},";":{"ha":291,"x_min":0,"x_max":0,"o":"m 123 -199 l 193 -24 l 193 131 l 141 131 l 141 -18 l 85 -184 z m 124 543 l 194 543 l 194 674 l 124 674 z "},"…":{"ha":692,"x_min":0,"x_max":0,"o":"m 416 131 l 275 131 l 275 0 l 416 0 z "},"!":{"ha":426,"x_min":0,"x_max":0,"o":"m 181 590 l 190 224 l 235 224 l 244 590 l 244 895 l 181 895 z m 178 0 l 248 0 l 248 109 l 178 109 z "},"¡":{"ha":426,"x_min":0,"x_max":0,"o":"m 244 182 l 236 549 l 190 549 l 181 183 l 181 -123 l 244 -123 z m 178 663 l 248 663 l 248 772 l 178 772 z "},"?":{"ha":723,"x_min":0,"x_max":0,"o":"m 264 306 l 264 230 l 328 230 l 328 297 b 482 483 328 383 402 434 b 665 697 572 539 665 593 b 368 907 665 856 542 907 b 37 839 249 907 122 874 l 58 784 b 375 851 154 823 260 851 b 601 698 499 851 601 815 b 447 529 601 624 527 579 b 264 306 358 474 264 415 z m 264 69 l 313 0 l 331 60 l 281 130 z "},"¿":{"ha":723,"x_min":0,"x_max":0,"o":"m 459 467 l 459 542 l 395 542 l 395 476 b 241 290 395 389 321 338 b 58 75 151 233 58 179 b 355 -135 58 -83 181 -135 b 686 -67 474 -135 601 -102 l 665 -12 b 348 -78 569 -51 463 -78 b 122 74 224 -78 122 -42 b 276 243 122 148 196 193 b 459 467 365 298 459 357 z m 392 712 l 442 642 l 459 703 l 410 772 z "},"/":{"ha":520,"x_min":0,"x_max":0,"o":"m 22 -201 l 78 -219 l 498 1035 l 441 1053 z "},"\\":{"ha":518,"x_min":0,"x_max":0,"o":"m 22 1037 l 440 -217 l 497 -199 l 78 1054 z "},"⁄":{"ha":489,"x_min":0,"x_max":0,"o":"m -125 10 l -81 -22 l 617 853 l 574 886 z "},"|":{"ha":419,"x_min":0,"x_max":0,"o":"m 178 1059 l 178 -297 l 241 -297 l 241 1059 z "},"¦":{"ha":419,"x_min":0,"x_max":0,"o":"m 178 301 l 178 -297 l 241 -297 l 241 301 z m 178 487 l 241 487 l 241 1059 l 178 1059 z "},"@":{"ha":1477,"x_min":0,"x_max":0,"o":"m 125 353 b 704 -179 125 -37 392 -179 b 1111 -102 891 -179 1050 -127 l 1092 -53 b 708 -126 1031 -74 923 -126 b 183 353 403 -126 183 21 b 758 865 183 685 420 865 b 1301 391 1069 865 1301 713 b 1158 110 1301 197 1235 110 b 1065 198 1109 110 1065 129 l 1065 400 b 747 694 1065 601 951 694 b 479 640 646 694 544 666 l 499 589 b 753 641 554 611 638 641 b 1006 431 915 641 994 571 b 850 438 951 435 899 438 b 406 222 565 438 406 365 b 642 47 406 95 515 47 b 1013 181 803 47 935 118 b 1148 56 1017 94 1075 56 b 1358 394 1265 56 1358 154 b 759 918 1358 763 1089 918 b 125 353 417 918 125 742 z m 468 224 b 867 390 468 322 582 390 b 1009 384 910 390 958 388 l 1010 239 b 656 99 928 169 799 99 b 468 224 530 99 468 144 z "},"&":{"ha":1131,"x_min":0,"x_max":0,"o":"m 449 -12 b 807 124 588 -12 719 26 b 1006 -12 869 83 934 37 l 1038 38 b 842 172 967 85 902 128 b 912 472 901 266 912 379 l 855 472 b 794 206 854 373 839 281 b 308 723 475 433 308 580 b 504 850 308 806 385 850 b 715 810 567 850 646 832 l 733 867 b 505 907 665 890 578 907 b 242 717 367 907 242 856 b 370 469 242 634 279 566 b 149 201 229 413 149 323 b 449 -12 149 39 308 -12 z m 212 208 b 411 431 212 326 315 396 b 759 158 492 356 606 267 b 462 44 674 65 548 44 b 212 208 346 44 212 85 z "},"§":{"ha":930,"x_min":0,"x_max":0,"o":"m 144 -60 l 120 -113 b 447 -180 174 -142 276 -180 b 788 49 646 -180 788 -119 b 715 201 788 125 760 173 b 820 367 781 238 820 294 b 218 699 820 712 218 432 b 470 853 218 806 330 853 b 733 807 585 853 666 831 l 754 858 b 475 906 691 882 590 906 b 160 696 319 906 160 850 b 248 542 160 615 193 572 b 129 372 188 509 129 463 b 733 47 129 42 733 335 b 451 -126 733 -78 625 -126 b 144 -60 297 -126 212 -94 z m 185 377 b 313 522 185 460 249 496 b 765 364 499 485 765 548 b 660 226 765 301 723 251 b 185 377 472 281 185 194 z "},"¶":{"ha":888,"x_min":0,"x_max":0,"o":"m 386 365 l 515 365 l 515 -141 l 578 -141 l 578 878 l 384 878 b 67 619 176 878 67 785 b 386 365 67 443 194 365 z m 647 -141 l 710 -141 l 710 878 l 647 878 z "},"·":{"ha":251,"x_min":0,"x_max":0,"o":"m 91 560 l 91 429 l 160 429 l 160 560 z "},"•":{"ha":326,"x_min":0,"x_max":0,"o":"m 91 512 l 91 342 l 235 342 l 235 512 z "},"+":{"ha":817,"x_min":0,"x_max":0,"o":"m 378 387 l 378 107 l 438 107 l 438 387 l 743 387 l 743 442 l 438 442 l 438 692 l 378 692 l 378 442 l 74 442 l 74 387 z "},"−":{"ha":843,"x_min":0,"x_max":0,"o":"m 74 442 l 74 387 l 769 387 l 769 442 z "},"±":{"ha":820,"x_min":0,"x_max":0,"o":"m 380 510 l 380 235 l 440 235 l 440 510 l 745 510 l 745 565 l 440 565 l 440 812 l 380 812 l 380 565 l 74 565 l 74 510 z m 74 67 l 746 67 l 746 123 l 74 123 z "},"÷":{"ha":843,"x_min":0,"x_max":0,"o":"m 384 248 l 384 145 l 458 145 l 458 248 z m 74 385 l 769 385 l 769 441 l 74 441 z m 384 567 l 458 567 l 458 669 l 384 669 z "},"×":{"ha":716,"x_min":0,"x_max":0,"o":"m 79 150 l 119 110 l 356 342 l 595 110 l 637 151 l 399 382 l 627 605 l 588 644 l 361 419 l 131 644 l 89 602 l 317 381 z "},"=":{"ha":817,"x_min":0,"x_max":0,"o":"m 74 339 l 74 283 l 743 283 l 743 339 z m 74 488 l 743 488 l 743 544 l 74 544 z "},"<":{"ha":881,"x_min":0,"x_max":0,"o":"m 92 352 l 742 56 l 769 110 l 144 390 l 769 663 l 744 715 l 92 427 z "},">":{"ha":881,"x_min":0,"x_max":0,"o":"m 144 56 l 796 344 l 796 419 l 146 715 l 119 662 l 743 381 l 119 110 z "},"≤":{"ha":898,"x_min":0,"x_max":0,"o":"m 106 483 l 772 217 l 794 271 l 165 520 l 793 744 l 773 797 l 106 558 z m 103 1 l 797 1 l 797 56 l 103 56 z "},"≥":{"ha":898,"x_min":0,"x_max":0,"o":"m 120 270 l 140 217 l 806 478 l 806 553 l 144 797 l 121 742 l 748 515 z m 115 1 l 809 1 l 809 56 l 115 56 z "},"≈":{"ha":801,"x_min":0,"x_max":0,"o":"m 259 317 b 541 247 375 317 444 247 b 727 309 617 247 671 271 l 702 353 b 545 303 659 324 608 303 b 263 374 452 303 383 374 b 74 313 190 374 122 343 l 96 265 b 259 317 139 292 199 317 z m 74 542 l 96 495 b 259 547 139 522 199 547 b 541 476 375 547 444 476 b 727 539 617 476 671 500 l 702 583 b 545 533 659 553 608 533 b 263 604 452 533 383 604 b 74 542 190 604 122 573 z "},"≠":{"ha":817,"x_min":0,"x_max":0,"o":"m 274 126 l 329 108 l 388 283 l 743 283 l 743 336 l 406 336 l 460 492 l 743 492 l 743 544 l 478 544 l 535 713 l 478 731 l 415 544 l 74 544 l 74 492 l 398 492 l 344 336 l 74 336 l 74 283 l 327 283 z "},"¬":{"ha":838,"x_min":0,"x_max":0,"o":"m 710 342 l 710 192 l 763 192 l 763 394 l 74 394 l 74 342 z "},"←":{"ha":1118,"x_min":0,"x_max":0,"o":"m 128 428 l 384 176 l 424 215 l 209 426 l 1024 426 l 1024 481 l 209 481 l 424 690 l 383 730 l 128 478 z "},"↑":{"ha":778,"x_min":0,"x_max":0,"o":"m 362 815 l 362 0 l 417 0 l 417 815 l 626 601 l 667 640 l 415 896 l 365 896 l 113 640 l 151 601 z "},"→":{"ha":1118,"x_min":0,"x_max":0,"o":"m 694 216 l 733 176 l 990 429 l 990 479 l 734 731 l 694 691 l 908 482 l 93 482 l 93 426 l 908 426 z "},"↓":{"ha":776,"x_min":0,"x_max":0,"o":"m 111 256 l 363 0 l 413 0 l 665 256 l 625 296 l 416 81 l 416 896 l 360 896 l 360 81 l 150 295 z "},"∂":{"ha":1047,"x_min":0,"x_max":0,"o":"m 485 -12 b 923 420 742 -12 923 124 b 492 907 923 715 772 907 b 176 816 353 907 231 853 l 201 770 b 493 852 285 822 383 852 b 863 419 727 852 863 688 l 863 384 b 504 560 819 460 705 560 b 142 270 367 560 142 493 b 485 -12 142 69 325 -12 z m 204 269 b 504 504 204 448 372 504 b 854 319 686 504 799 422 b 489 42 822 130 678 42 b 204 269 333 42 204 122 z "},"∆":{"ha":1108,"x_min":0,"x_max":0,"o":"m 513 982 l 60 0 l 1048 0 l 593 982 z m 153 56 l 553 924 l 952 56 z "},"∏":{"ha":1068,"x_min":0,"x_max":0,"o":"m 177 895 l 177 -162 l 240 -162 l 240 841 l 828 841 l 828 -162 l 891 -162 l 891 895 z "},"∑":{"ha":944,"x_min":0,"x_max":0,"o":"m 129 -83 l 129 -160 l 866 -160 l 866 -105 l 191 -105 l 628 372 l 195 840 l 863 840 l 863 895 l 129 895 l 129 819 l 547 371 z "},"µ":{"ha":1006,"x_min":0,"x_max":0,"o":"m 148 674 l 148 -274 l 209 -274 l 209 85 b 446 -12 263 8 359 -12 b 800 89 609 -12 749 59 l 808 0 l 858 0 l 858 674 l 796 674 l 796 146 b 450 45 740 113 606 45 b 209 271 285 45 209 129 l 209 674 z "},"∕":{"ha":520,"x_min":0,"x_max":0,"o":"m 22 -201 l 78 -219 l 498 1035 l 441 1053 z "},"√":{"ha":892,"x_min":0,"x_max":0,"o":"m 176 486 l 401 0 l 478 0 l 917 967 l 865 991 l 441 50 l 217 542 l 50 542 l 50 486 z "},"∞":{"ha":1301,"x_min":0,"x_max":0,"o":"m 111 337 b 353 95 111 182 212 95 b 578 211 443 95 513 134 l 649 294 l 721 211 b 948 95 788 135 855 95 b 1190 337 1089 95 1190 182 b 948 583 1190 497 1085 583 b 731 472 858 583 792 543 l 651 378 l 567 476 b 353 583 506 547 444 583 b 111 337 220 583 111 497 z m 170 338 b 353 531 170 451 237 531 b 526 433 410 531 460 510 l 613 335 l 542 253 b 357 147 480 180 424 147 b 170 338 238 147 170 226 z m 687 337 l 765 431 b 948 531 831 509 889 531 b 1131 338 1065 531 1131 451 b 945 147 1131 226 1064 147 b 759 253 878 147 822 180 z "},"∫":{"ha":763,"x_min":0,"x_max":0,"o":"m 8 -201 l -4 -253 b 163 -275 -4 -253 75 -275 b 413 -80 316 -275 413 -235 l 413 774 b 606 928 413 901 467 928 b 754 910 671 928 709 921 l 767 963 b 599 984 767 963 688 984 b 351 789 447 984 351 944 l 351 -65 b 156 -219 351 -192 296 -219 b 8 -201 91 -219 53 -212 z "},"$":{"ha":909,"x_min":0,"x_max":0,"o":"m 342 60 l 342 -73 l 391 -73 l 391 56 b 456 56 410 56 437 56 b 520 58 478 56 500 57 l 520 -73 l 569 -73 l 569 65 b 799 278 710 88 799 156 b 569 478 799 408 710 453 l 569 764 b 729 727 632 756 685 741 l 748 778 b 569 818 702 794 642 810 l 569 970 l 520 970 l 520 823 b 464 825 501 824 483 825 b 391 822 440 825 416 824 l 391 970 l 342 970 l 342 815 b 137 625 234 794 137 742 b 342 453 137 513 223 474 l 342 114 b 130 169 246 124 172 151 l 107 119 b 342 60 153 95 235 70 z m 194 629 b 342 763 194 706 257 745 l 342 509 b 194 629 249 527 194 556 z m 391 109 l 391 445 b 457 438 413 443 435 440 b 520 431 478 436 500 433 l 520 110 b 456 107 500 108 478 107 b 391 109 433 107 412 108 z m 391 501 l 391 769 b 459 773 413 772 436 773 b 520 770 480 773 500 772 l 520 486 b 459 493 500 488 480 491 b 391 501 435 495 413 498 z m 569 117 l 569 423 b 744 276 675 403 744 368 b 569 117 744 190 680 136 z "},"¢":{"ha":858,"x_min":0,"x_max":0,"o":"m 363 51 l 363 -73 l 411 -73 l 411 42 b 485 38 434 40 459 38 b 535 39 501 38 521 38 l 535 -73 l 583 -73 l 583 44 b 783 108 658 53 725 76 l 757 155 b 583 98 705 130 648 108 l 583 635 b 738 594 635 628 685 615 l 760 646 b 583 690 710 666 654 683 l 583 813 l 535 813 l 535 694 b 494 694 522 694 508 694 b 411 689 465 694 438 692 l 411 813 l 363 813 l 363 678 b 105 359 210 640 105 531 b 363 51 105 199 204 90 z m 168 358 b 363 621 168 499 246 585 l 363 110 b 168 358 244 144 168 230 z m 411 97 l 411 633 b 497 641 438 638 467 641 b 535 640 510 641 522 641 l 535 92 b 497 91 524 92 510 91 b 411 97 467 91 440 92 z "},"£":{"ha":817,"x_min":0,"x_max":0,"o":"m 151 56 l 151 0 l 761 0 l 761 54 l 215 54 l 272 422 l 691 422 l 691 477 l 281 477 l 309 657 b 533 851 338 829 433 851 b 747 821 603 851 685 835 l 764 876 b 536 907 708 890 624 907 b 247 660 406 907 283 877 l 217 477 l 88 477 l 88 422 l 208 422 z "},"¤":{"ha":842,"x_min":0,"x_max":0,"o":"m 580 231 l 676 136 l 713 171 l 619 265 b 678 424 656 305 678 359 b 613 588 678 491 654 547 l 701 676 l 667 710 l 576 617 b 423 660 534 644 481 660 b 267 615 363 660 309 644 l 175 708 l 140 672 l 227 582 b 167 424 190 542 167 489 b 226 265 167 359 190 305 l 131 171 l 167 138 l 261 234 b 422 188 304 204 360 188 b 580 231 483 188 537 203 z m 220 424 b 423 613 220 534 298 613 b 626 424 548 613 626 534 b 423 235 626 313 548 235 b 220 424 299 235 220 313 z "},"¥":{"ha":1110,"x_min":0,"x_max":0,"o":"m 529 217 l 529 0 l 592 0 l 592 217 l 860 217 l 860 271 l 613 271 l 684 368 l 860 368 l 860 422 l 724 422 l 1055 871 l 1008 906 l 563 303 l 93 906 l 46 868 l 390 422 l 270 422 l 270 368 l 433 368 l 508 271 l 270 271 l 270 217 z "},"€":{"ha":1031,"x_min":0,"x_max":0,"o":"m 212 335 b 619 -11 243 106 390 -11 b 942 74 754 -11 858 24 l 915 126 b 623 45 842 83 753 45 b 278 335 426 45 307 147 l 733 335 l 733 390 l 272 390 b 270 439 270 406 270 422 b 272 500 270 460 271 481 l 733 500 l 733 554 l 280 554 b 627 850 315 765 457 850 b 877 794 717 850 788 833 l 901 848 b 630 907 815 887 730 907 b 215 554 435 907 254 812 l 66 554 l 66 500 l 208 500 b 205 438 206 481 205 459 b 206 390 205 422 206 406 l 66 390 l 66 335 z "},"ƒ":{"ha":799,"x_min":0,"x_max":0,"o":"m -97 -217 l -112 -270 b 72 -290 -112 -270 -45 -290 b 343 -72 251 -290 330 -209 l 388 399 l 731 399 l 731 449 l 392 449 l 412 665 b 617 824 422 781 483 824 b 787 806 688 824 733 817 l 801 858 b 617 878 801 858 723 878 b 350 670 451 878 363 818 l 331 449 l 120 449 l 120 399 l 326 399 l 282 -70 b 74 -236 272 -181 206 -236 b -97 -217 8 -236 -44 -229 z "},"₱":{"ha":1156,"x_min":0,"x_max":0,"o":"m 254 458 l 254 0 l 317 0 l 317 267 l 672 267 b 995 458 832 267 952 329 l 1133 458 l 1133 513 l 1008 513 b 1013 574 1010 531 1013 552 b 1007 644 1013 598 1010 622 l 1133 644 l 1133 699 l 994 699 b 672 895 955 818 853 895 l 254 895 l 254 699 l 97 699 l 97 644 l 254 644 l 254 513 l 97 513 l 97 458 z m 317 324 l 317 458 l 924 458 b 673 324 888 376 806 324 z m 317 513 l 317 644 l 940 644 b 947 574 945 623 947 599 b 941 513 947 553 945 532 z m 317 699 l 317 838 l 678 838 b 922 699 802 838 885 787 z "},"^":{"ha":697,"x_min":0,"x_max":0,"o":"m 60 526 l 108 493 l 350 847 l 589 494 l 638 528 l 388 895 l 315 895 z "},"~":{"ha":705,"x_min":0,"x_max":0,"o":"m 472 294 b 635 390 541 294 603 339 l 600 422 b 472 352 576 385 531 352 b 362 388 429 352 397 370 b 227 431 324 408 281 431 b 70 343 164 431 100 387 l 101 307 b 224 374 128 344 176 374 b 344 330 270 374 306 351 b 472 294 378 312 421 294 z "},"´":{"ha":526,"x_min":0,"x_max":0,"o":"m 115 1049 l 142 1003 l 411 1139 l 382 1192 z "},"`":{"ha":526,"x_min":0,"x_max":0,"o":"m 115 1140 l 384 1003 l 412 1048 l 145 1193 z "},"˝":{"ha":744,"x_min":0,"x_max":0,"o":"m 170 1035 l 210 1000 l 419 1208 l 376 1251 z m 431 1041 l 469 1003 l 686 1203 l 645 1248 z "},"ˆ":{"ha":674,"x_min":0,"x_max":0,"o":"m 115 1036 l 154 999 l 338 1171 l 522 999 l 560 1037 l 372 1210 l 308 1210 z "},"ˇ":{"ha":674,"x_min":0,"x_max":0,"o":"m 115 1189 l 303 1016 l 368 1016 l 560 1190 l 523 1226 l 338 1054 l 156 1226 z "},"˘":{"ha":616,"x_min":0,"x_max":0,"o":"m 167 1200 l 115 1194 b 308 1003 121 1094 164 1003 b 501 1194 451 1003 494 1097 l 450 1200 b 308 1054 438 1087 388 1054 b 167 1200 231 1054 178 1087 z "},"˜":{"ha":706,"x_min":0,"x_max":0,"o":"m 347 1047 b 458 1011 378 1029 416 1011 b 591 1104 510 1011 558 1037 l 546 1128 b 458 1064 522 1083 494 1064 b 360 1099 421 1064 392 1082 b 249 1137 327 1117 292 1137 b 115 1046 197 1137 144 1110 l 159 1022 b 249 1084 181 1059 210 1084 b 347 1047 284 1084 315 1065 z "},"¯":{"ha":608,"x_min":0,"x_max":0,"o":"m 115 1082 l 115 1029 l 493 1029 l 493 1082 z "},"¨":{"ha":499,"x_min":0,"x_max":0,"o":"m 115 1119 l 115 1023 l 182 1023 l 182 1119 z m 317 1023 l 385 1023 l 385 1119 l 317 1119 z "},"˙":{"ha":297,"x_min":0,"x_max":0,"o":"m 115 1118 l 115 1023 l 182 1023 l 182 1118 z "},"˚":{"ha":508,"x_min":0,"x_max":0,"o":"m 115 1110 b 253 990 115 1042 166 990 b 393 1110 337 990 393 1042 b 253 1231 393 1179 336 1231 b 115 1110 172 1231 115 1179 z m 163 1110 b 254 1190 163 1152 197 1190 b 344 1110 311 1190 344 1152 b 254 1031 344 1068 310 1031 b 163 1110 197 1031 163 1068 z "},"¸":{"ha":502,"x_min":0,"x_max":0,"o":"m 133 -221 l 122 -266 b 228 -283 135 -270 171 -283 b 391 -151 328 -283 391 -233 b 238 38 391 -68 347 -8 l 206 6 b 337 -146 310 -36 337 -93 b 231 -235 337 -217 271 -235 b 133 -221 193 -235 156 -228 z "},"˛":{"ha":572,"x_min":0,"x_max":0,"o":"m 149 -153 b 301 -284 149 -235 205 -284 b 412 -267 356 -284 397 -272 l 400 -222 b 301 -236 377 -229 337 -236 b 203 -148 250 -236 203 -207 b 360 15 203 -88 253 -36 l 317 43 b 149 -153 215 -9 149 -68 z "},"©":{"ha":1183,"x_min":0,"x_max":0,"o":"m 591 -11 b 1067 447 879 -11 1067 176 b 591 904 1067 717 876 904 b 115 447 306 904 115 717 b 591 -11 115 176 302 -11 z m 171 447 b 591 854 171 687 336 854 b 1013 447 847 854 1013 687 b 591 39 1013 213 852 39 b 171 447 336 39 171 206 z m 326 442 b 593 197 326 276 443 197 b 790 251 660 197 737 219 l 765 294 b 595 249 725 274 662 249 b 384 439 479 249 384 305 b 602 638 384 569 483 638 b 758 601 653 638 702 626 l 779 648 b 599 688 738 667 684 688 b 326 442 457 688 326 603 z "},"®":{"ha":715,"x_min":0,"x_max":0,"o":"m 403 579 l 440 492 l 479 506 l 444 588 b 491 661 475 599 491 624 b 388 745 491 719 454 745 l 242 745 l 242 496 l 287 496 l 287 579 z m 56 622 b 356 335 56 450 175 335 b 658 622 538 335 658 450 b 356 908 658 793 537 908 b 56 622 177 908 56 793 z m 102 622 b 356 867 102 765 199 867 b 611 622 514 867 611 765 b 356 376 611 478 514 376 b 102 622 199 376 102 478 z m 287 615 l 287 709 l 386 709 b 447 662 428 709 447 692 b 388 615 447 631 431 615 z "},"™":{"ha":1328,"x_min":0,"x_max":0,"o":"m 630 895 l 630 451 l 681 451 l 681 833 l 883 481 l 942 481 l 1144 835 l 1144 451 l 1195 451 l 1195 895 l 1124 895 l 914 527 l 702 895 z m 45 851 l 267 851 l 267 451 l 319 451 l 319 851 l 531 851 l 531 896 l 45 896 z "},"°":{"ha":599,"x_min":0,"x_max":0,"o":"m 66 687 b 299 467 66 555 157 467 b 533 687 441 467 533 555 b 299 907 533 819 438 907 b 66 687 159 907 66 819 z m 123 687 b 299 857 123 777 185 857 b 475 687 414 857 475 777 b 299 518 475 597 414 518 b 123 687 185 518 123 597 z "},"◊":{"ha":910,"x_min":0,"x_max":0,"o":"m 131 440 l 415 0 l 494 0 l 778 440 l 494 895 l 415 895 z m 200 440 l 453 852 l 711 440 l 456 42 z "},"₹":{"ha":988,"x_min":0,"x_max":0,"o":"m 546 324 l 704 -11 l 760 15 l 605 343 b 769 582 697 380 765 467 l 896 582 l 896 636 l 768 636 b 619 842 760 727 709 812 l 896 842 l 896 896 l 186 896 l 186 841 l 421 841 b 706 636 598 841 694 760 l 186 636 l 186 582 l 708 582 b 420 367 698 450 609 367 l 186 367 l 186 313 l 421 313 b 546 324 469 313 510 316 z "},"ﬀ":{"ha":1235,"x_min":0,"x_max":0,"o":"m 219 0 l 279 0 l 279 622 l 794 622 l 794 0 l 854 0 l 854 622 l 1230 622 l 1230 674 l 854 674 l 854 781 b 1062 936 854 908 928 936 b 1255 913 1154 936 1206 923 l 1267 967 b 1057 992 1228 975 1155 992 b 794 790 894 992 794 946 l 794 674 l 279 674 l 279 767 b 478 922 279 894 351 922 b 640 902 554 922 595 913 l 652 955 b 472 977 613 965 558 977 b 219 775 316 977 219 931 l 219 674 l 81 674 l 81 622 l 219 622 z "},"ﬁ":{"ha":957,"x_min":0,"x_max":0,"o":"m 219 0 l 279 0 l 279 624 l 749 624 l 749 0 l 809 0 l 809 674 l 279 674 l 279 781 b 495 936 279 908 356 936 b 699 913 592 936 647 924 l 711 967 b 490 992 670 976 592 992 b 219 790 323 992 219 946 l 219 674 l 81 674 l 81 622 l 219 622 z "},"ﬂ":{"ha":1019,"x_min":0,"x_max":0,"o":"m 219 622 l 219 0 l 279 0 l 279 622 l 613 622 l 613 674 l 279 674 l 279 774 b 476 930 279 902 351 930 b 646 908 558 930 601 918 l 658 960 b 471 985 619 969 560 985 b 219 783 316 985 219 940 l 219 674 l 81 674 l 81 622 z m 812 0 l 872 0 l 872 982 l 812 982 z "},"ﬃ":{"ha":1532,"x_min":0,"x_max":0,"o":"m 219 0 l 279 0 l 279 622 l 794 622 l 794 0 l 854 0 l 854 622 l 1324 622 l 1324 0 l 1384 0 l 1384 674 l 854 674 l 854 781 b 1070 936 854 908 931 936 b 1274 913 1167 936 1222 924 l 1286 967 b 1065 992 1245 976 1167 992 b 794 790 898 992 794 946 l 794 674 l 279 674 l 279 767 b 478 922 279 894 351 922 b 640 902 554 922 595 913 l 652 955 b 472 977 613 965 558 977 b 219 775 316 977 219 931 l 219 674 l 81 674 l 81 622 l 219 622 z "},"ﬄ":{"ha":1594,"x_min":0,"x_max":0,"o":"m 219 0 l 279 0 l 279 622 l 794 622 l 794 0 l 854 0 l 854 622 l 1188 622 l 1188 674 l 854 674 l 854 774 b 1051 930 854 902 926 930 b 1221 908 1133 930 1176 918 l 1233 960 b 1046 985 1194 969 1135 985 b 794 783 891 985 794 940 l 794 674 l 279 674 l 279 767 b 478 922 279 894 351 922 b 640 902 554 922 595 911 l 652 955 b 472 977 613 963 558 977 b 219 775 316 977 219 931 l 219 674 l 81 674 l 81 622 l 219 622 z m 1387 0 l 1447 0 l 1447 982 l 1387 982 z "},"₀":{"ha":764,"x_min":0,"x_max":0,"o":"m 116 47 b 381 -206 116 -133 244 -206 b 648 49 518 -206 648 -133 b 385 303 648 232 519 303 b 116 47 251 303 116 236 z m 174 48 b 383 253 174 192 274 253 b 590 48 492 253 590 192 b 383 -156 590 -95 492 -156 b 174 48 273 -156 174 -95 z "},"₁":{"ha":764,"x_min":0,"x_max":0,"o":"m 164 -148 l 164 -197 l 625 -197 l 625 -148 l 427 -148 l 427 285 l 379 285 l 204 241 l 214 193 l 374 231 l 374 -148 z "},"₂":{"ha":764,"x_min":0,"x_max":0,"o":"m 141 -128 l 141 -189 l 645 -189 l 645 -140 l 198 -140 l 198 -122 b 374 19 198 -69 217 -24 l 488 49 b 628 182 576 74 628 108 b 414 305 628 267 551 305 b 172 253 339 305 243 284 l 192 206 b 412 256 265 239 355 256 b 571 178 512 256 571 235 b 468 94 571 142 549 116 l 358 64 b 141 -128 168 11 141 -42 z "},"₃":{"ha":764,"x_min":0,"x_max":0,"o":"m 371 -210 b 637 -58 527 -210 637 -174 b 502 71 637 -5 604 63 b 598 181 573 89 598 133 b 405 301 598 275 508 301 b 174 257 308 301 216 274 l 189 213 b 402 254 250 237 343 254 b 542 180 517 254 542 217 b 366 82 542 119 502 82 l 256 83 l 256 37 l 381 37 b 581 -60 519 37 581 11 b 378 -162 581 -127 513 -162 b 149 -117 277 -162 211 -144 l 131 -162 b 371 -210 169 -181 248 -210 z "},"₄":{"ha":764,"x_min":0,"x_max":0,"o":"m 497 -101 l 497 -197 l 549 -197 l 549 -101 l 644 -101 l 644 -54 l 549 -54 l 549 291 l 475 291 l 147 -53 l 147 -101 z m 208 -54 l 497 247 l 497 -54 z "},"₅":{"ha":764,"x_min":0,"x_max":0,"o":"m 402 -208 b 647 -46 544 -208 647 -156 b 428 113 647 76 544 113 b 240 69 354 113 290 94 l 253 244 l 583 244 l 583 292 l 210 292 l 189 44 l 236 22 b 421 66 284 49 356 66 b 592 -48 528 66 592 37 b 406 -159 592 -128 508 -159 b 163 -99 299 -159 215 -129 l 141 -146 b 402 -208 179 -167 261 -208 z "},"₆":{"ha":764,"x_min":0,"x_max":0,"o":"m 396 -208 b 655 -34 568 -208 655 -131 b 444 129 655 81 553 129 b 184 9 344 129 242 85 b 183 38 183 19 183 28 b 431 255 183 172 275 255 b 574 231 483 255 532 247 l 594 275 b 434 302 562 288 496 302 b 130 32 240 302 130 199 b 396 -208 130 -133 247 -208 z m 195 -44 b 443 85 239 28 352 85 b 602 -33 533 85 602 40 b 397 -162 602 -124 504 -162 b 195 -44 323 -162 226 -135 z "},"₇":{"ha":764,"x_min":0,"x_max":0,"o":"m 279 -169 l 322 -203 l 649 235 l 649 291 l 152 291 l 152 243 l 591 243 z "},"₈":{"ha":764,"x_min":0,"x_max":0,"o":"m 137 -73 b 387 -208 137 -169 246 -208 b 636 -73 526 -208 636 -166 b 483 60 636 6 556 56 b 606 172 551 69 606 106 b 387 304 606 260 513 304 b 168 172 267 304 168 262 b 290 58 168 106 223 67 b 137 -73 214 50 137 3 z m 193 -69 b 387 35 193 0 284 35 b 581 -69 490 35 581 0 b 386 -163 581 -128 516 -163 b 193 -69 258 -163 193 -128 z m 223 170 b 387 262 223 235 290 262 b 551 170 485 262 551 235 b 387 80 551 107 458 80 b 223 170 315 80 223 107 z "},"₉":{"ha":764,"x_min":0,"x_max":0,"o":"m 356 -208 b 644 60 546 -208 644 -111 b 398 303 644 223 527 303 b 148 124 274 303 148 253 b 349 -32 148 -8 281 -32 b 593 69 469 -32 549 17 b 593 54 593 64 593 59 b 362 -161 590 -94 501 -161 b 192 -125 303 -161 240 -150 l 172 -169 b 356 -208 201 -187 263 -208 z m 200 127 b 392 258 200 208 277 258 b 587 117 476 258 564 215 b 353 15 538 60 463 15 b 200 127 292 15 200 37 z "},"₍":{"ha":382,"x_min":0,"x_max":0,"o":"m 128 50 b 234 -242 128 -112 194 -190 l 276 -211 b 181 50 230 -148 181 -74 b 275 292 181 160 221 238 l 235 322 b 128 50 185 273 128 193 z "},"₎":{"ha":382,"x_min":0,"x_max":0,"o":"m 127 -210 l 169 -241 b 274 51 208 -189 274 -111 b 167 323 274 194 218 274 l 128 292 b 222 51 182 238 222 160 b 127 -210 222 -73 174 -148 z "},"¹":{"ha":764,"x_min":0,"x_max":0,"o":"m 164 570 l 164 521 l 625 521 l 625 570 l 427 570 l 427 1003 l 379 1003 l 204 959 l 214 911 l 374 949 l 374 570 z "},"²":{"ha":764,"x_min":0,"x_max":0,"o":"m 141 581 l 141 519 l 645 519 l 645 568 l 198 568 l 198 587 b 374 728 198 640 217 685 l 488 758 b 628 890 576 782 628 817 b 414 1013 628 975 551 1013 b 172 961 339 1013 243 992 l 192 915 b 412 965 265 947 355 965 b 571 887 512 965 571 943 b 468 802 571 850 549 824 l 358 772 b 141 581 168 719 141 666 z "},"³":{"ha":764,"x_min":0,"x_max":0,"o":"m 371 499 b 637 652 527 499 637 536 b 502 781 637 705 604 772 b 598 891 573 799 598 842 b 405 1010 598 985 508 1010 b 174 967 308 1010 216 983 l 189 922 b 402 964 250 947 343 964 b 542 890 517 964 542 927 b 366 792 542 829 502 792 l 256 792 l 256 747 l 381 747 b 581 649 519 747 581 721 b 378 547 581 583 513 547 b 149 592 277 547 211 566 l 131 547 b 371 499 169 529 248 499 z "},"⁰":{"ha":764,"x_min":0,"x_max":0,"o":"m 116 756 b 381 503 116 576 244 503 b 648 758 518 503 648 576 b 385 1013 648 941 519 1013 b 116 756 251 1013 116 945 z m 174 757 b 383 962 174 901 274 962 b 590 757 492 962 590 901 b 383 553 590 614 492 553 b 174 757 273 553 174 614 z "},"⁴":{"ha":764,"x_min":0,"x_max":0,"o":"m 497 611 l 497 515 l 549 515 l 549 611 l 644 611 l 644 658 l 549 658 l 549 1003 l 475 1003 l 147 658 l 147 611 z m 208 658 l 497 958 l 497 658 z "},"⁵":{"ha":764,"x_min":0,"x_max":0,"o":"m 402 503 b 647 665 544 503 647 556 b 428 824 647 787 544 824 b 240 780 354 824 290 806 l 253 955 l 583 955 l 583 1003 l 210 1003 l 189 755 l 236 733 b 421 777 284 760 356 777 b 592 663 528 777 592 748 b 406 552 592 583 508 552 b 163 612 299 552 215 582 l 141 565 b 402 503 179 544 261 503 z "},"⁶":{"ha":764,"x_min":0,"x_max":0,"o":"m 396 503 b 655 677 568 503 655 581 b 444 840 655 792 553 840 b 184 720 344 840 242 796 b 183 749 183 730 183 739 b 431 966 183 883 275 966 b 574 942 483 966 532 958 l 594 986 b 434 1013 562 999 496 1013 b 130 743 240 1013 130 910 b 396 503 130 578 247 503 z m 195 667 b 443 796 239 740 352 796 b 602 678 533 796 602 751 b 397 549 602 587 504 549 b 195 667 323 549 226 576 z "},"⁷":{"ha":764,"x_min":0,"x_max":0,"o":"m 279 542 l 322 509 l 649 947 l 649 1003 l 152 1003 l 152 955 l 591 955 z "},"⁸":{"ha":764,"x_min":0,"x_max":0,"o":"m 137 636 b 387 501 137 540 246 501 b 636 636 526 501 636 543 b 483 769 636 715 556 765 b 606 881 551 778 606 815 b 387 1013 606 969 513 1013 b 168 881 267 1013 168 971 b 290 767 168 815 223 776 b 137 636 214 759 137 713 z m 193 640 b 387 744 193 709 284 744 b 581 640 490 744 581 709 b 386 546 581 581 516 546 b 193 640 258 546 193 581 z m 223 879 b 387 971 223 944 290 971 b 551 879 485 971 551 944 b 387 789 551 816 458 789 b 223 879 315 789 223 816 z "},"⁹":{"ha":764,"x_min":0,"x_max":0,"o":"m 356 502 b 644 769 546 502 644 599 b 398 1013 644 933 527 1013 b 148 834 274 1013 148 963 b 349 678 148 701 281 678 b 593 778 469 678 549 727 b 593 764 593 774 593 769 b 362 549 590 616 501 549 b 192 585 303 549 240 560 l 172 540 b 356 502 201 523 263 502 z m 200 837 b 392 968 200 918 277 968 b 587 826 476 968 564 925 b 353 724 538 769 463 724 b 200 837 292 724 200 747 z "},"⁽":{"ha":382,"x_min":0,"x_max":0,"o":"m 128 714 b 234 422 128 552 194 474 l 276 453 b 181 714 230 516 181 590 b 275 956 181 824 221 902 l 235 986 b 128 714 185 937 128 857 z "},"⁾":{"ha":382,"x_min":0,"x_max":0,"o":"m 127 453 l 169 422 b 274 714 208 474 274 552 b 167 986 274 857 218 937 l 128 955 b 222 714 182 901 222 824 b 127 453 222 590 174 515 z "},"⁺":{"ha":382,"x_min":0,"x_max":0,"o":"m 168 681 l 168 547 l 217 547 l 217 681 l 340 681 l 340 728 l 217 728 l 217 851 l 168 851 l 168 728 l 42 728 l 42 681 z "},"⁻":{"ha":382,"x_min":0,"x_max":0,"o":"m 42 729 l 42 682 l 340 682 l 340 729 z "},"⁼":{"ha":382,"x_min":0,"x_max":0,"o":"m 42 649 l 42 601 l 340 601 l 340 649 z m 42 741 l 340 741 l 340 789 l 42 789 z "},"ẞ":{"ha":2151,"x_min":0,"x_max":0,"o":"m 1224 121 l 1199 62 b 1605 -11 1288 22 1426 -11 b 2039 260 1874 -11 2039 60 b 1665 497 2039 461 1851 485 b 1288 662 1477 508 1288 507 b 1631 848 1288 785 1399 848 b 1958 795 1771 848 1888 817 l 1978 853 b 1628 907 1907 877 1781 907 b 1223 663 1379 907 1223 824 b 1641 434 1223 451 1440 445 b 1976 258 1814 424 1976 411 b 1608 48 1976 98 1822 48 b 1224 121 1445 48 1328 77 z m 122 62 b 528 -11 212 22 349 -11 b 963 260 797 -11 963 60 b 589 497 963 461 775 485 b 212 662 401 508 212 507 b 555 848 212 785 322 848 b 882 795 694 848 811 817 l 902 853 b 552 907 831 877 704 907 b 147 663 303 907 147 824 b 565 434 147 451 363 445 b 899 258 738 424 899 411 b 531 48 899 98 745 48 b 147 121 369 48 251 77 z "}," ":{"ha":694,"x_min":0,"x_max":0,"o":""}," ":{"ha":517,"x_min":0,"x_max":0,"o":""}," ":{"ha":1389,"x_min":0,"x_max":0,"o":""}}}
